<svg width="60" height="52" viewBox="0 0 60 52" fill="none" xmlns="http://www.w3.org/2000/svg">
<path d="M58.5686 0H7.28514C6.26419 0 5.89954 1.34993 6.78164 1.86399L28.8791 14.7418C29.032 14.8308 29.2057 14.8778 29.3826 14.8778H58.5686C59.1208 14.8778 59.5686 14.4301 59.5686 13.8778V1C59.5686 0.447715 59.1208 0 58.5686 0Z" fill="#2563EB"/>
<path d="M0 12.9782V4.45855C0 3.68416 0.84229 3.20364 1.5089 3.59773L27.9812 19.2476C28.1353 19.3387 28.3111 19.3868 28.4901 19.3868H50.4198C51.1424 19.3868 51.6264 20.1297 51.3346 20.7907L46.843 30.9634C46.6831 31.3258 46.3243 31.5595 45.9282 31.5595H28.5089C28.318 31.5595 28.1312 31.5049 27.9704 31.4021L0.461476 13.8208C0.173972 13.637 0 13.3194 0 12.9782Z" fill="#2563EB"/>
<path d="M0 31.0309V20.3435C0 19.5469 0.886036 19.0701 1.55088 19.5089L27.0703 36.3535C27.2337 36.4614 27.4253 36.5189 27.6211 36.5189H58.5685C59.1207 36.5189 59.5685 36.9666 59.5685 37.5189V50.3967C59.5685 50.9489 59.1207 51.3967 58.5685 51.3967H29.4207C29.2198 51.3967 29.0236 51.3362 28.8576 51.223L0.436902 31.8573C0.163559 31.6711 0 31.3617 0 31.0309Z" fill="#2563EB"/>
<path d="M0 50.3964V37.1033C0 36.2911 0.917105 35.8177 1.57922 36.2882L20.2874 49.5812C21.0815 50.1454 20.6823 51.3964 19.7082 51.3964H1C0.447715 51.3964 0 50.9486 0 50.3964Z" fill="#2563EB"/>
</svg>
