<svg width="251" height="56" viewBox="0 0 251 56" fill="none" xmlns="http://www.w3.org/2000/svg">
<path d="M73 40C72.4477 40 72 39.5523 72 39V4C72 3.44771 72.4477 3 73 3H103.013C103.565 3 104.013 3.44772 104.013 4V10.0938C104.013 10.646 103.565 11.0938 103.013 11.0938H85.0591C84.5068 11.0938 84.0591 11.5415 84.0591 12.0938V16.4531C84.0591 17.0054 84.5068 17.4531 85.0591 17.4531H101.365C101.917 17.4531 102.365 17.9008 102.365 18.4531V24.5469C102.365 25.0992 101.917 25.5469 101.365 25.5469H85.0591C84.5068 25.5469 84.0591 25.9946 84.0591 26.5469V30.9063C84.0591 31.4585 84.5068 31.9063 85.0591 31.9063H102.926C103.479 31.9063 103.926 32.354 103.926 32.9063V39C103.926 39.5523 103.479 40 102.926 40H73Z" fill="white"/>
<path d="M127.085 40H110.994C110.442 40 109.994 39.5523 109.994 39V4C109.994 3.44771 110.442 3 110.994 3H126.911C131.48 3 135.428 3.74072 138.754 5.22217C142.094 6.69157 144.667 8.81136 146.475 11.5815C148.297 14.3397 149.208 17.6458 149.208 21.5C149.208 25.3542 148.304 28.6663 146.497 31.4365C144.689 34.1947 142.13 36.3145 138.819 37.7959C135.507 39.2653 131.596 40 127.085 40ZM122.053 30.4727C122.053 31.0249 122.501 31.4727 123.053 31.4727H126.651C128.849 31.4727 130.721 31.1776 132.269 30.5874C133.83 29.9972 135.016 28.9795 135.826 27.5342C136.65 26.0889 137.062 24.0775 137.062 21.5C137.062 18.9225 136.643 16.9111 135.804 15.4658C134.98 14.0205 133.765 13.0028 132.16 12.4126C130.57 11.8224 128.618 11.5273 126.304 11.5273H123.053C122.501 11.5273 122.053 11.9751 122.053 12.5273V30.4727Z" fill="white"/>
<path d="M165.846 3C166.399 3 166.846 3.44772 166.846 4V39C166.846 39.5523 166.399 40 165.846 40H155.787C155.235 40 154.787 39.5523 154.787 39V4C154.787 3.44771 155.235 3 155.787 3H165.846Z" fill="white"/>
<path d="M173.561 40C173.009 40 172.561 39.5523 172.561 39V4C172.561 3.44771 173.009 3 173.561 3H202.794C203.346 3 203.794 3.44772 203.794 4V10.0938C203.794 10.646 203.346 11.0938 202.794 11.0938H185.621C185.068 11.0938 184.621 11.5415 184.621 12.0938V16.4531C184.621 17.0054 185.068 17.4531 185.621 17.4531H200.885C201.437 17.4531 201.885 17.9008 201.885 18.4531V24.5469C201.885 25.0992 201.437 25.5469 200.885 25.5469H185.621C185.068 25.5469 184.621 25.9946 184.621 26.5469V39C184.621 39.5523 184.173 40 183.621 40H173.561Z" fill="white"/>
<path d="M207.398 4.54085C206.97 3.87534 207.448 3 208.239 3H219.277C219.634 3 219.964 3.19065 220.143 3.50011L228.443 17.881C228.497 17.974 228.596 18.0312 228.704 18.0312V18.0312C228.811 18.0312 228.91 17.974 228.964 17.881L237.264 3.50012C237.443 3.19065 237.773 3 238.13 3H249.168C249.959 3 250.437 3.87534 250.009 4.54085L234.849 28.1181C234.745 28.2795 234.69 28.4672 234.69 28.659V39C234.69 39.5523 234.242 40 233.69 40H223.717C223.165 40 222.717 39.5523 222.717 39V28.659C222.717 28.4672 222.662 28.2795 222.559 28.1181L207.398 4.54085Z" fill="white"/>
<path d="M58.5685 0H7.28506C6.26411 0 5.89946 1.34993 6.78156 1.86399L28.879 14.7418C29.0319 14.8308 29.2056 14.8778 29.3825 14.8778H58.5685C59.1207 14.8778 59.5685 14.4301 59.5685 13.8778V1C59.5685 0.447715 59.1207 0 58.5685 0Z" fill="white"/>
<path d="M0 12.9776V4.45791C0 3.68352 0.84229 3.203 1.5089 3.59709L27.9812 19.247C28.1353 19.3381 28.3111 19.3862 28.4901 19.3862H50.4198C51.1424 19.3862 51.6264 20.1291 51.3346 20.7901L46.843 30.9628C46.6831 31.3252 46.3243 31.5589 45.9282 31.5589H28.5089C28.318 31.5589 28.1312 31.5043 27.9704 31.4015L0.461476 13.8202C0.173972 13.6364 0 13.3188 0 12.9776Z" fill="white"/>
<path d="M0 31.0302V20.3428C0 19.5462 0.886036 19.0694 1.55088 19.5082L27.0703 36.3528C27.2337 36.4607 27.4253 36.5182 27.6211 36.5182H58.5685C59.1207 36.5182 59.5685 36.9659 59.5685 37.5182V50.396C59.5685 50.9482 59.1207 51.396 58.5685 51.396H29.4207C29.2198 51.396 29.0236 51.3355 28.8576 51.2223L0.436902 31.8566C0.163559 31.6704 0 31.361 0 31.0302Z" fill="white"/>
<path d="M0 50.396V37.1029C0 36.2907 0.917105 35.8173 1.57922 36.2878L20.2874 49.5808C21.0815 50.145 20.6823 51.396 19.7082 51.396H1C0.447715 51.396 0 50.9482 0 50.396Z" fill="white"/>
<path d="M82.024 47.3184C81.9418 47.0804 81.8284 46.8674 81.6837 46.6794C81.5423 46.4884 81.3713 46.3254 81.1707 46.1902C80.9734 46.0551 80.7465 45.9537 80.49 45.8862C80.2335 45.8156 79.954 45.7804 79.6514 45.7804C79.1089 45.7804 78.6255 45.9023 78.2013 46.1462C77.7771 46.39 77.4433 46.7484 77.1999 47.2214C76.9599 47.6915 76.8399 48.2644 76.8399 48.9401C76.8399 49.6217 76.9599 50.199 77.1999 50.6721C77.44 51.1451 77.7738 51.505 78.2013 51.7517C78.6288 51.9956 79.1253 52.1175 79.6909 52.1175C80.2039 52.1175 80.6478 52.0294 81.0227 51.8531C81.4009 51.6768 81.6919 51.4271 81.8958 51.1039C82.0997 50.7778 82.2016 50.3959 82.2016 49.9581L82.6159 50.0154H79.8734V48.7374H83.9724V49.8215C83.9724 50.5942 83.7883 51.2626 83.42 51.8267C83.0517 52.3907 82.5452 52.8256 81.9007 53.1311C81.2562 53.4337 80.5163 53.585 79.681 53.585C78.7504 53.585 77.9333 53.3985 77.2295 53.0253C76.5291 52.6493 75.9816 52.116 75.587 51.4256C75.1957 50.7323 75 49.9097 75 48.9578C75 48.2292 75.1151 47.5784 75.3453 47.0055C75.5788 46.4326 75.9043 45.9464 76.3219 45.5468C76.7396 45.1443 77.2295 44.8388 77.7919 44.6302C78.3542 44.4187 78.9658 44.3129 79.6268 44.3129C80.1858 44.3129 80.707 44.3863 81.1904 44.5332C81.6738 44.6772 82.103 44.8828 82.4778 45.1502C82.856 45.4176 83.1668 45.7349 83.4101 46.1021C83.6534 46.4693 83.8129 46.8748 83.8886 47.3184H82.024Z" fill="white"/>
<path d="M87.0521 53.4616V46.6926H88.7834V47.8208H88.8624C89.0005 47.43 89.2372 47.1289 89.5727 46.9174C89.9114 46.7029 90.2977 46.5957 90.7318 46.5957C90.8305 46.5957 90.9406 46.6001 91.0623 46.6089C91.1873 46.6148 91.2908 46.625 91.3731 46.6397V48.1072C91.2974 48.0837 91.1774 48.0632 91.013 48.0455C90.8518 48.025 90.6956 48.0147 90.5444 48.0147C90.2188 48.0147 89.9262 48.0779 89.6664 48.2042C89.4099 48.3276 89.2076 48.4994 89.0597 48.7198C88.9117 48.9401 88.8377 49.1943 88.8377 49.4822V53.4616H87.0521Z" fill="white"/>
<path d="M96.9412 53.5938C96.2013 53.5938 95.5601 53.4484 95.0175 53.1575C94.4749 52.8667 94.054 52.4598 93.7548 51.9368C93.4588 51.4139 93.3108 50.8028 93.3108 50.1036C93.3108 49.4043 93.4588 48.7918 93.7548 48.2659C94.054 47.74 94.4749 47.3316 95.0175 47.0408C95.5601 46.7499 96.2013 46.6045 96.9412 46.6045C97.6811 46.6045 98.3224 46.7499 98.8649 47.0408C99.4075 47.3316 99.8268 47.74 100.123 48.2659C100.422 48.7918 100.572 49.4043 100.572 50.1036C100.572 50.8028 100.422 51.4139 100.123 51.9368C99.8268 52.4598 99.4075 52.8667 98.8649 53.1575C98.3224 53.4484 97.6811 53.5938 96.9412 53.5938ZM96.9511 52.3158C97.3523 52.3158 97.6877 52.2174 97.9573 52.0206C98.227 51.8208 98.4276 51.5534 98.5591 51.2185C98.6939 50.8836 98.7614 50.5105 98.7614 50.0992C98.7614 49.6849 98.6939 49.3103 98.5591 48.9754C98.4276 48.6375 98.227 48.3687 97.9573 48.1689C97.6877 47.9692 97.3523 47.8693 96.9511 47.8693C96.54 47.8693 96.198 47.9692 95.9251 48.1689C95.6555 48.3687 95.4532 48.6375 95.3184 48.9754C95.1869 49.3103 95.1211 49.6849 95.1211 50.0992C95.1211 50.5105 95.1869 50.8836 95.3184 51.2185C95.4532 51.5534 95.6555 51.8208 95.9251 52.0206C96.198 52.2174 96.54 52.3158 96.9511 52.3158Z" fill="white"/>
<path d="M108.305 50.6148V46.6926H110.091V53.4616H108.359V52.2585H108.281C108.11 52.6375 107.828 52.9475 107.437 53.1884C107.049 53.4293 106.571 53.5498 106.002 53.5498C105.505 53.5498 105.066 53.4513 104.685 53.2545C104.307 53.0547 104.011 52.7653 103.797 52.3863C103.583 52.0044 103.476 51.5432 103.476 51.0026V46.6926H105.262V50.7558C105.262 51.1847 105.393 51.5255 105.656 51.7782C105.919 52.0308 106.265 52.1572 106.692 52.1572C106.955 52.1572 107.21 52.0999 107.457 51.9853C107.703 51.8707 107.906 51.7003 108.064 51.4741C108.225 51.245 108.305 50.9585 108.305 50.6148Z" fill="white"/>
<path d="M113.316 56V46.6926H115.072V47.812H115.176C115.268 47.6474 115.398 47.4726 115.565 47.2876C115.733 47.0995 115.96 46.9394 116.246 46.8072C116.532 46.6721 116.897 46.6045 117.341 46.6045C117.926 46.6045 118.454 46.7382 118.924 47.0055C119.398 47.2699 119.773 47.6621 120.049 48.1822C120.329 48.6992 120.468 49.3338 120.468 50.0859C120.468 50.8292 120.332 51.4609 120.059 51.9809C119.786 52.5009 119.414 52.8975 118.944 53.1708C118.474 53.444 117.941 53.5806 117.346 53.5806C116.912 53.5806 116.552 53.516 116.266 53.3867C115.98 53.2574 115.749 53.1017 115.575 52.9196C115.404 52.7345 115.271 52.5597 115.176 52.3952H115.102V56H113.316ZM115.067 50.0771C115.067 50.5149 115.136 50.8983 115.274 51.2273C115.416 51.5564 115.618 51.8134 115.881 51.9985C116.147 52.1807 116.47 52.2718 116.848 52.2718C117.242 52.2718 117.573 52.1777 117.839 51.9897C118.106 51.7988 118.306 51.5387 118.441 51.2097C118.579 50.8777 118.648 50.5002 118.648 50.0771C118.648 49.657 118.581 49.2839 118.446 48.9578C118.311 48.6317 118.111 48.3761 117.844 48.191C117.578 48.0059 117.246 47.9133 116.848 47.9133C116.466 47.9133 116.142 48.0029 115.876 48.1822C115.61 48.3614 115.407 48.6126 115.269 48.9357C115.134 49.2589 115.067 49.6394 115.067 50.0771Z" fill="white"/>
<path d="M131.526 53.5938C130.786 53.5938 130.145 53.4484 129.602 53.1575C129.059 52.8667 128.638 52.4598 128.339 51.9368C128.043 51.4139 127.895 50.8028 127.895 50.1036C127.895 49.4043 128.043 48.7918 128.339 48.2659C128.638 47.74 129.059 47.3316 129.602 47.0408C130.145 46.7499 130.786 46.6045 131.526 46.6045C132.266 46.6045 132.907 46.7499 133.449 47.0408C133.992 47.3316 134.411 47.74 134.707 48.2659C135.006 48.7918 135.156 49.4043 135.156 50.1036C135.156 50.8028 135.006 51.4139 134.707 51.9368C134.411 52.4598 133.992 52.8667 133.449 53.1575C132.907 53.4484 132.266 53.5938 131.526 53.5938ZM131.536 52.3158C131.937 52.3158 132.272 52.2174 132.542 52.0206C132.811 51.8208 133.012 51.5534 133.144 51.2185C133.278 50.8836 133.346 50.5105 133.346 50.0992C133.346 49.6849 133.278 49.3103 133.144 48.9754C133.012 48.6375 132.811 48.3687 132.542 48.1689C132.272 47.9692 131.937 47.8693 131.536 47.8693C131.125 47.8693 130.783 47.9692 130.51 48.1689C130.24 48.3687 130.038 48.6375 129.903 48.9754C129.771 49.3103 129.706 49.6849 129.706 50.0992C129.706 50.5105 129.771 50.8836 129.903 51.2185C130.038 51.5534 130.24 51.8208 130.51 52.0206C130.783 52.2174 131.125 52.3158 131.536 52.3158Z" fill="white"/>
<path d="M141.898 46.6926V47.9266H137.419V46.6926H141.898ZM138.539 53.4616V46.0536C138.539 45.5982 138.644 45.2192 138.855 44.9166C139.069 44.614 139.355 44.3878 139.713 44.238C140.072 44.0881 140.469 44.0132 140.907 44.0132C141.216 44.0132 141.49 44.0353 141.731 44.0793C141.971 44.1234 142.148 44.1631 142.263 44.1983L141.908 45.4322C141.832 45.4117 141.737 45.3911 141.622 45.3705C141.507 45.347 141.379 45.3353 141.237 45.3353C140.905 45.3353 140.67 45.4073 140.532 45.5512C140.397 45.6923 140.33 45.895 140.33 46.1594V53.4616H138.539Z" fill="white"/>
<path d="M158.246 47.4815H156.401C156.349 47.2112 156.251 46.9717 156.11 46.7631C155.969 46.5516 155.793 46.3724 155.582 46.2255C155.372 46.0786 155.132 45.9684 154.862 45.895C154.596 45.8186 154.308 45.7804 153.999 45.7804C153.45 45.7804 152.963 45.9038 152.539 46.1506C152.115 46.3944 151.783 46.7528 151.542 47.2259C151.302 47.6959 151.182 48.2703 151.182 48.949C151.182 49.6394 151.302 50.2211 151.542 50.6941C151.786 51.1642 152.118 51.5196 152.539 51.7606C152.963 51.9985 153.448 52.1175 153.994 52.1175C154.297 52.1175 154.579 52.0823 154.842 52.0118C155.109 51.9383 155.347 51.8311 155.558 51.69C155.771 51.549 155.951 51.3757 156.095 51.17C156.243 50.9644 156.345 50.7293 156.401 50.4649L158.246 50.4737C158.177 50.9027 158.027 51.3052 157.797 51.6812C157.57 52.0573 157.273 52.3893 156.904 52.6772C156.536 52.9622 156.105 53.1855 155.612 53.347C155.119 53.5057 154.571 53.585 153.969 53.585C153.081 53.585 152.289 53.4014 151.592 53.0342C150.895 52.6669 150.346 52.1366 149.944 51.4433C149.543 50.7499 149.343 49.9185 149.343 48.949C149.343 47.9765 149.545 47.1451 149.949 46.4546C150.354 45.7613 150.905 45.231 151.602 44.8638C152.299 44.4965 153.088 44.3129 153.969 44.3129C154.532 44.3129 155.055 44.3834 155.538 44.5244C156.021 44.6654 156.452 44.8726 156.83 45.1458C157.208 45.4161 157.519 45.7481 157.763 46.1418C158.009 46.5325 158.17 46.9791 158.246 47.4815Z" fill="white"/>
<path d="M164.537 53.5938C163.797 53.5938 163.156 53.4484 162.613 53.1575C162.07 52.8667 161.649 52.4598 161.35 51.9368C161.054 51.4139 160.906 50.8028 160.906 50.1036C160.906 49.4043 161.054 48.7918 161.35 48.2659C161.649 47.74 162.07 47.3316 162.613 47.0408C163.156 46.7499 163.797 46.6045 164.537 46.6045C165.277 46.6045 165.918 46.7499 166.46 47.0408C167.003 47.3316 167.422 47.74 167.718 48.2659C168.017 48.7918 168.167 49.4043 168.167 50.1036C168.167 50.8028 168.017 51.4139 167.718 51.9368C167.422 52.4598 167.003 52.8667 166.46 53.1575C165.918 53.4484 165.277 53.5938 164.537 53.5938ZM164.547 52.3158C164.948 52.3158 165.283 52.2174 165.553 52.0206C165.822 51.8208 166.023 51.5534 166.155 51.2185C166.289 50.8836 166.357 50.5105 166.357 50.0992C166.357 49.6849 166.289 49.3103 166.155 48.9754C166.023 48.6375 165.822 48.3687 165.553 48.1689C165.283 47.9692 164.948 47.8693 164.547 47.8693C164.136 47.8693 163.794 47.9692 163.521 48.1689C163.251 48.3687 163.049 48.6375 162.914 48.9754C162.782 49.3103 162.717 49.6849 162.717 50.0992C162.717 50.5105 162.782 50.8836 162.914 51.2185C163.049 51.5534 163.251 51.8208 163.521 52.0206C163.794 52.2174 164.136 52.3158 164.547 52.3158Z" fill="white"/>
<path d="M171.072 53.4616V46.6926H172.778V47.8428H172.867C173.025 47.455 173.286 47.1524 173.651 46.935C174.016 46.7147 174.452 46.6045 174.959 46.6045C175.472 46.6045 175.904 46.7161 176.256 46.9394C176.611 47.1598 176.861 47.4609 177.006 47.8428H177.085C177.252 47.4668 177.535 47.1671 177.933 46.9438C178.334 46.7176 178.809 46.6045 179.358 46.6045C180.056 46.6045 180.624 46.8013 181.065 47.195C181.506 47.5887 181.726 48.1631 181.726 48.9181V53.4616H179.936V49.1649C179.936 48.7448 179.811 48.4378 179.561 48.2438C179.311 48.047 179.005 47.9486 178.643 47.9486C178.212 47.9486 177.875 48.069 177.632 48.31C177.392 48.5479 177.272 48.8579 177.272 49.2398V53.4616H175.521V49.0988C175.521 48.7492 175.402 48.4701 175.166 48.2615C174.932 48.0529 174.626 47.9486 174.248 47.9486C173.992 47.9486 173.758 48.0073 173.548 48.1249C173.337 48.2394 173.17 48.4025 173.045 48.614C172.92 48.8226 172.857 49.0665 172.857 49.3456V53.4616H171.072Z" fill="white"/>
<path d="M184.927 56V46.6926H186.683V47.812H186.786C186.878 47.6474 187.008 47.4726 187.176 47.2876C187.344 47.0995 187.571 46.9394 187.857 46.8072C188.143 46.6721 188.508 46.6045 188.952 46.6045C189.537 46.6045 190.065 46.7382 190.535 47.0055C191.009 47.2699 191.383 47.6621 191.66 48.1822C191.939 48.6992 192.079 49.3338 192.079 50.0859C192.079 50.8292 191.942 51.4609 191.67 51.9809C191.397 52.5009 191.025 52.8975 190.555 53.1708C190.084 53.444 189.552 53.5806 188.957 53.5806C188.522 53.5806 188.162 53.516 187.876 53.3867C187.59 53.2574 187.36 53.1017 187.186 52.9196C187.015 52.7345 186.882 52.5597 186.786 52.3952H186.712V56H184.927ZM186.678 50.0771C186.678 50.5149 186.747 50.8983 186.885 51.2273C187.026 51.5564 187.229 51.8134 187.492 51.9985C187.758 52.1807 188.08 52.2718 188.458 52.2718C188.853 52.2718 189.183 52.1777 189.45 51.9897C189.716 51.7988 189.917 51.5387 190.052 51.2097C190.19 50.8777 190.259 50.5002 190.259 50.0771C190.259 49.657 190.191 49.2839 190.057 48.9578C189.922 48.6317 189.721 48.3761 189.455 48.191C189.188 48.0059 188.856 47.9133 188.458 47.9133C188.077 47.9133 187.753 48.0029 187.487 48.1822C187.22 48.3614 187.018 48.6126 186.88 48.9357C186.745 49.2589 186.678 49.6394 186.678 50.0771Z" fill="white"/>
<path d="M197.177 53.5982C196.697 53.5982 196.265 53.5219 195.88 53.3691C195.499 53.2134 195.196 52.9842 194.972 52.6816C194.752 52.379 194.642 52.0059 194.642 51.5622C194.642 51.1803 194.721 50.8645 194.879 50.6148C195.037 50.365 195.252 50.1653 195.525 50.0154C195.798 49.8656 196.105 49.7525 196.447 49.6761C196.793 49.5968 197.149 49.5395 197.518 49.5042C197.962 49.4631 198.322 49.4264 198.598 49.3941C198.874 49.3588 199.075 49.3059 199.2 49.2354C199.328 49.162 199.392 49.0488 199.392 48.8961V48.8696C199.392 48.5376 199.282 48.2806 199.062 48.0984C198.841 47.9163 198.524 47.8252 198.11 47.8252C197.672 47.8252 197.325 47.9104 197.069 48.0808C196.816 48.2512 196.645 48.4524 196.556 48.6845L194.889 48.473C195.02 48.0617 195.237 47.718 195.54 47.4418C195.842 47.1627 196.212 46.9541 196.649 46.816C197.087 46.675 197.57 46.6045 198.1 46.6045C198.465 46.6045 198.828 46.6427 199.19 46.7191C199.551 46.7954 199.882 46.9218 200.181 47.0981C200.48 47.2714 200.721 47.5079 200.901 47.8076C201.086 48.1072 201.178 48.4818 201.178 48.9313V53.4616H199.461V52.5318H199.402C199.293 52.7198 199.14 52.8961 198.943 53.0606C198.749 53.2222 198.504 53.3529 198.208 53.4528C197.916 53.5498 197.572 53.5982 197.177 53.5982ZM197.641 52.426C197.999 52.426 198.31 52.3628 198.573 52.2365C198.836 52.1072 199.038 51.9368 199.18 51.7253C199.325 51.5138 199.397 51.2831 199.397 51.0334V50.2358C199.341 50.2769 199.246 50.3151 199.111 50.3503C198.979 50.3856 198.831 50.4165 198.667 50.4429C198.502 50.4693 198.34 50.4928 198.179 50.5134C198.017 50.534 197.878 50.5516 197.759 50.5663C197.493 50.5986 197.255 50.6515 197.044 50.7249C196.834 50.7984 196.668 50.9012 196.546 51.0334C196.424 51.1627 196.363 51.3302 196.363 51.5358C196.363 51.8296 196.483 52.0514 196.723 52.2012C196.964 52.3511 197.269 52.426 197.641 52.426Z" fill="white"/>
<path d="M206.148 49.4954V53.4616H204.362V46.6926H206.069V47.8428H206.158C206.332 47.4638 206.61 47.1627 206.991 46.9394C207.376 46.7161 207.851 46.6045 208.417 46.6045C208.94 46.6045 209.395 46.7044 209.783 46.9041C210.174 47.1039 210.477 47.3933 210.691 47.7723C210.908 48.1513 211.015 48.6111 211.011 49.1517V53.4616H209.226V49.3985C209.226 48.946 209.094 48.592 208.831 48.3364C208.571 48.0808 208.211 47.953 207.751 47.953C207.438 47.953 207.161 48.0147 206.917 48.1381C206.677 48.2585 206.488 48.4333 206.35 48.6625C206.215 48.8917 206.148 49.1693 206.148 49.4954Z" fill="white"/>
<path d="M214.215 53.4616V46.6926H216.001V53.4616H214.215ZM215.113 45.7319C214.83 45.7319 214.587 45.6482 214.383 45.4807C214.179 45.3103 214.077 45.1061 214.077 44.8682C214.077 44.6272 214.179 44.4231 214.383 44.2556C214.587 44.0852 214.83 44 215.113 44C215.399 44 215.643 44.0852 215.843 44.2556C216.047 44.4231 216.149 44.6272 216.149 44.8682C216.149 45.1061 216.047 45.3103 215.843 45.4807C215.643 45.6482 215.399 45.7319 215.113 45.7319Z" fill="white"/>
<path d="M222.58 53.5938C221.821 53.5938 221.165 53.4528 220.612 53.1708C220.063 52.8858 219.641 52.4833 219.345 51.9633C219.049 51.4403 218.901 50.8248 218.901 50.1168C218.901 49.4205 219.049 48.8094 219.345 48.2835C219.644 47.7547 220.062 47.3434 220.598 47.0496C221.134 46.7528 221.763 46.6045 222.487 46.6045C222.954 46.6045 223.394 46.6721 223.809 46.8072C224.226 46.9394 224.595 47.1451 224.914 47.4242C225.236 47.7033 225.489 48.0588 225.673 48.4906C225.857 48.9196 225.949 49.4308 225.949 50.0242V50.5134H219.739V49.4381H224.238C224.234 49.1326 224.161 48.8608 224.016 48.6228C223.871 48.3819 223.669 48.1924 223.409 48.0544C223.153 47.9163 222.853 47.8472 222.511 47.8472C222.146 47.8472 221.826 47.9266 221.55 48.0852C221.273 48.2409 221.058 48.4466 220.903 48.7022C220.752 48.9548 220.675 49.2325 220.672 49.5351V50.4737C220.672 50.8674 220.752 51.2053 220.913 51.4873C221.074 51.7664 221.3 51.9809 221.589 52.1307C221.878 52.2776 222.217 52.3511 222.605 52.3511C222.865 52.3511 223.1 52.3188 223.31 52.2541C223.521 52.1866 223.703 52.0881 223.858 51.9589C224.013 51.8296 224.129 51.6695 224.208 51.4785L225.875 51.646C225.77 52.0397 225.57 52.3834 225.274 52.6772C224.981 52.968 224.606 53.1943 224.149 53.3559C223.692 53.5145 223.169 53.5938 222.58 53.5938Z" fill="white"/>
<path d="M234.837 48.4818L233.209 48.6405C233.163 48.4936 233.083 48.3555 232.968 48.2262C232.856 48.097 232.705 47.9927 232.514 47.9133C232.323 47.834 232.09 47.7943 231.814 47.7943C231.442 47.7943 231.13 47.8663 230.876 48.0103C230.626 48.1542 230.503 48.3408 230.506 48.57C230.503 48.7668 230.584 48.9269 230.748 49.0503C230.916 49.1737 231.192 49.2751 231.577 49.3544L232.869 49.6012C233.586 49.7393 234.119 49.9581 234.467 50.2578C234.819 50.5575 234.997 50.9497 235 51.4344C234.997 51.8604 234.857 52.2365 234.581 52.5626C234.308 52.8858 233.928 53.1384 233.441 53.3206C232.955 53.5028 232.396 53.5938 231.764 53.5938C230.837 53.5938 230.09 53.4205 229.525 53.0738C228.959 52.7242 228.622 52.238 228.514 51.6151L230.255 51.4653C230.334 51.7708 230.501 52.0015 230.758 52.1572C231.014 52.3129 231.348 52.3907 231.759 52.3907C232.183 52.3907 232.524 52.3129 232.78 52.1572C233.04 52.0015 233.17 51.809 233.17 51.5799C233.17 51.386 233.086 51.2259 232.918 51.0995C232.754 50.9732 232.498 50.8762 232.149 50.8087L230.857 50.5663C230.13 50.4311 229.592 50.2035 229.244 49.8832C228.895 49.56 228.722 49.1517 228.726 48.6581C228.722 48.2409 228.849 47.8795 229.106 47.574C229.365 47.2655 229.725 47.0275 230.186 46.8601C230.649 46.6897 231.184 46.6045 231.789 46.6045C232.677 46.6045 233.376 46.7734 233.885 47.1113C234.398 47.4491 234.716 47.906 234.837 48.4818Z" fill="white"/>
</svg>
