<svg xmlns="http://www.w3.org/2000/svg" width="143" height="32" viewBox="0 0 143 32" fill="none">
<g clip-path="url(#clip0_5_913)">
<mask id="mask0_5_913" style="mask-type:luminance" maskUnits="userSpaceOnUse" x="0" y="0" width="143" height="32">
<path d="M143 0H0V32H143V0Z" fill="white"/>
</mask>
<g mask="url(#mask0_5_913)">
<path d="M41.531 19C41.2378 19 41 18.7701 41 18.4865V0.513516C41 0.229902 41.2378 0 41.531 0H57.469C57.7621 0 58 0.229911 58 0.513516V3.64277C58 3.92633 57.7621 4.15628 57.469 4.15628H47.9349C47.6415 4.15628 47.4038 4.38618 47.4038 4.66979V6.90836C47.4038 7.19197 47.6415 7.42188 47.9349 7.42188H56.5938C56.887 7.42188 57.1249 7.65175 57.1249 7.93536V11.0646C57.1249 11.3483 56.887 11.5781 56.5938 11.5781H47.9349C47.6415 11.5781 47.4038 11.8081 47.4038 12.0917V14.3303C47.4038 14.6139 47.6415 14.8438 47.9349 14.8438H57.4228C57.7165 14.8438 57.9538 15.0737 57.9538 15.3573V18.4865C57.9538 18.7701 57.7165 19 57.4228 19H41.531Z" fill="white"/>
<path d="M69.7168 19H61.51C61.2285 19 61 18.7701 61 18.4865V0.513516C61 0.229902 61.2285 0 61.51 0H69.6281C71.9583 0 73.9719 0.380372 75.6683 1.14112C77.3717 1.89568 78.684 2.98421 79.6062 4.40672C80.5354 5.82309 81 7.52082 81 9.50001C81 11.4792 80.539 13.18 79.6173 14.6025C78.6953 16.0189 77.3901 17.1074 75.7014 17.8682C74.0122 18.6227 72.0175 19 69.7168 19ZM67.1504 14.1077C67.1504 14.3912 67.3789 14.6211 67.6604 14.6211H69.4954C70.6165 14.6211 71.5712 14.4696 72.3607 14.1665C73.1569 13.8635 73.7618 13.3408 74.1749 12.5986C74.5952 11.8564 74.8053 10.8236 74.8053 9.50001C74.8053 8.17647 74.5916 7.14355 74.1637 6.40137C73.7435 5.65919 73.1237 5.13658 72.3051 4.8335C71.4942 4.53043 70.4987 4.37889 69.3185 4.37889H67.6604C67.3789 4.37889 67.1504 4.60884 67.1504 4.89241V14.1077Z" fill="white"/>
<path d="M89.5025 0C89.7776 0 90 0.229911 90 0.513516V18.4865C90 18.7701 89.7776 19 89.5025 19H84.4975C84.223 19 84 18.7701 84 18.4865V0.513516C84 0.229902 84.223 0 84.4975 0H89.5025Z" fill="white"/>
<path d="M93.5444 19C93.2439 19 93 18.7701 93 18.4865V0.513516C93 0.229902 93.2439 0 93.5444 0H109.455C109.756 0 110 0.229911 110 0.513516V3.64277C110 3.92633 109.756 4.15628 109.455 4.15628H100.108C99.8073 4.15628 99.5637 4.38618 99.5637 4.66979V6.90836C99.5637 7.19197 99.8073 7.42188 100.108 7.42188H108.416C108.717 7.42188 108.961 7.65175 108.961 7.93536V11.0646C108.961 11.3483 108.717 11.5781 108.416 11.5781H100.108C99.8073 11.5781 99.5637 11.8081 99.5637 12.0917V18.4865C99.5637 18.7701 99.3201 19 99.0201 19H93.5444Z" fill="white"/>
<path d="M111.086 0.791244C110.857 0.449496 111.113 0 111.536 0H117.45C117.641 0 117.819 0.0978991 117.914 0.256807L122.361 7.6416C122.39 7.6894 122.443 7.7187 122.5 7.7187C122.557 7.7187 122.611 7.6894 122.64 7.6416L127.086 0.256807C127.182 0.0978991 127.359 0 127.551 0H133.463C133.888 0 134.143 0.449496 133.914 0.791244L125.792 12.8985C125.737 12.9814 125.707 13.0778 125.707 13.1763V18.4865C125.707 18.7701 125.468 19 125.171 19H119.828C119.533 19 119.293 18.7701 119.293 18.4865V13.1763C119.293 13.0778 119.263 12.9814 119.209 12.8985L111.086 0.791244Z" fill="white"/>
<path d="M33.3675 0H4.15027C3.56862 0 3.36087 0.771389 3.86342 1.06514L16.4528 8.42389C16.5399 8.47474 16.6388 8.5016 16.7396 8.5016H33.3675C33.6821 8.5016 33.9372 8.24577 33.9372 7.93017V0.571429C33.9372 0.255837 33.6821 0 33.3675 0Z" fill="#2563EB"/>
<path d="M0 7.41577V2.54738C0 2.10487 0.47987 1.83029 0.859652 2.05548L15.9415 10.9983C16.0293 11.0503 16.1294 11.0778 16.2314 11.0778H28.7252C29.1369 11.0778 29.4126 11.5023 29.2464 11.8801L26.6874 17.693C26.5963 17.9001 26.3919 18.0337 26.1663 18.0337H16.2421C16.1334 18.0337 16.0269 18.0025 15.9353 17.9437L0.262913 7.89726C0.0991155 7.79223 0 7.61074 0 7.41577Z" fill="#2563EB"/>
<path d="M0 17.7315V11.6245C0 11.1693 0.504793 10.8968 0.883569 11.1475L15.4225 20.773C15.5156 20.8347 15.6248 20.8675 15.7363 20.8675H33.3677C33.6823 20.8675 33.9374 21.1234 33.9374 21.439V28.7977C33.9374 29.1133 33.6823 29.3691 33.3677 29.3691H16.7616C16.6471 29.3691 16.5354 29.3346 16.4408 29.2699L0.248912 18.2038C0.093183 18.0974 0 17.9206 0 17.7315Z" fill="#2563EB"/>
<path d="M0 28.7977V21.2017C0 20.7375 0.522494 20.467 0.899715 20.7359L11.5582 28.3319C12.0106 28.6543 11.7831 29.3691 11.2282 29.3691H0.569721C0.255073 29.3691 0 29.1133 0 28.7977Z" fill="#2563EB"/>
<path d="M44.7307 25.0391C44.6839 24.9031 44.6193 24.7814 44.5368 24.6739C44.4563 24.5648 44.3588 24.4717 44.2446 24.3944C44.1322 24.3172 44.0029 24.2593 43.8568 24.2207C43.7106 24.1803 43.5514 24.1602 43.379 24.1602C43.0699 24.1602 42.7945 24.2299 42.5528 24.3693C42.3112 24.5086 42.121 24.7134 41.9823 24.9837C41.8456 25.2523 41.7772 25.5797 41.7772 25.9658C41.7772 26.3553 41.8456 26.6851 41.9823 26.9555C42.1191 27.2258 42.3093 27.4314 42.5528 27.5724C42.7964 27.7118 43.0793 27.7814 43.4015 27.7814C43.6938 27.7814 43.9467 27.7311 44.1602 27.6303C44.3757 27.5296 44.5415 27.3869 44.6577 27.2022C44.7738 27.0159 44.8319 26.7977 44.8319 26.5475L45.0679 26.5802H43.5055V25.8499H45.8407V26.4694C45.8407 26.911 45.7359 27.2929 45.526 27.6153C45.3162 27.9375 45.0276 28.1861 44.6605 28.3606C44.2933 28.5335 43.8717 28.62 43.3958 28.62C42.8657 28.62 42.4001 28.5134 41.9992 28.3002C41.6001 28.0853 41.2882 27.7806 41.0634 27.3861C40.8405 26.9899 40.729 26.5198 40.729 25.9759C40.729 25.5595 40.7946 25.1877 40.9257 24.8603C41.0587 24.5329 41.2442 24.2551 41.4821 24.0267C41.7201 23.7967 41.9992 23.6222 42.3196 23.503C42.6399 23.3821 42.9884 23.3217 43.365 23.3217C43.6834 23.3217 43.9804 23.3636 44.2558 23.4475C44.5312 23.5298 44.7757 23.6473 44.9892 23.8001C45.2047 23.9529 45.3818 24.1342 45.5204 24.3441C45.659 24.5539 45.7499 24.7856 45.793 25.0391H44.7307Z" fill="#CCCCCC"/>
<path d="M47.5952 28.5495V24.6815H48.5816V25.3262H48.6266C48.7053 25.1029 48.8401 24.9308 49.0313 24.8099C49.2242 24.6874 49.4443 24.6261 49.6916 24.6261C49.7479 24.6261 49.8106 24.6286 49.8799 24.6337C49.9511 24.637 50.0101 24.6429 50.057 24.6513V25.4898C50.0139 25.4764 49.9455 25.4647 49.8518 25.4546C49.76 25.4429 49.671 25.437 49.5849 25.437C49.3994 25.437 49.2327 25.4731 49.0846 25.5453C48.9385 25.6158 48.8233 25.7139 48.739 25.8399C48.6547 25.9658 48.6125 26.111 48.6125 26.2755V28.5495H47.5952Z" fill="#CCCCCC"/>
<path d="M53.2294 28.625C52.8079 28.625 52.4426 28.5419 52.1335 28.3757C51.8243 28.2095 51.5845 27.977 51.4141 27.6782C51.2455 27.3794 51.1611 27.0302 51.1611 26.6306C51.1611 26.231 51.2455 25.881 51.4141 25.5805C51.5845 25.28 51.8243 25.0466 52.1335 24.8805C52.4426 24.7142 52.8079 24.6311 53.2294 24.6311C53.651 24.6311 54.0163 24.7142 54.3254 24.8805C54.6346 25.0466 54.8734 25.28 55.0422 25.5805C55.2125 25.881 55.298 26.231 55.298 26.6306C55.298 27.0302 55.2125 27.3794 55.0422 27.6782C54.8734 27.977 54.6346 28.2095 54.3254 28.3757C54.0163 28.5419 53.651 28.625 53.2294 28.625ZM53.2351 27.8947C53.4637 27.8947 53.6547 27.8385 53.8083 27.7261C53.962 27.6119 54.0763 27.4591 54.1512 27.2677C54.228 27.0763 54.2665 26.8631 54.2665 26.6281C54.2665 26.3914 54.228 26.1773 54.1512 25.9859C54.0763 25.7929 53.962 25.6393 53.8083 25.5251C53.6547 25.411 53.4637 25.3539 53.2351 25.3539C53.0009 25.3539 52.806 25.411 52.6506 25.5251C52.497 25.6393 52.3817 25.7929 52.3049 25.9859C52.23 26.1773 52.1925 26.3914 52.1925 26.6281C52.1925 26.8631 52.23 27.0763 52.3049 27.2677C52.3817 27.4591 52.497 27.6119 52.6506 27.7261C52.806 27.8385 53.0009 27.8947 53.2351 27.8947Z" fill="#CCCCCC"/>
<path d="M59.7037 26.9227V24.6815H60.7213V28.5495H59.7345V27.862H59.6901C59.5926 28.0786 59.432 28.2557 59.2092 28.3934C58.9882 28.531 58.7158 28.5999 58.3917 28.5999C58.1085 28.5999 57.8584 28.5436 57.6414 28.4311C57.426 28.317 57.2574 28.1516 57.1354 27.935C57.0135 27.7168 56.9526 27.4533 56.9526 27.1443V24.6815H57.9701V27.0033C57.9701 27.2484 58.0447 27.4431 58.1946 27.5875C58.3444 27.7319 58.5415 27.8041 58.7848 27.8041C58.9346 27.8041 59.0799 27.7714 59.2206 27.7059C59.3608 27.6404 59.4764 27.543 59.5664 27.4138C59.6582 27.2829 59.7037 27.1191 59.7037 26.9227Z" fill="#CCCCCC"/>
<path d="M62.5586 30V24.6815H63.559V25.3211H63.6183C63.6707 25.2271 63.7448 25.1272 63.8399 25.0215C63.9356 24.914 64.065 24.8225 64.2279 24.747C64.3908 24.6698 64.5988 24.6311 64.8517 24.6311C65.185 24.6311 65.4858 24.7075 65.7536 24.8603C66.0237 25.0114 66.2373 25.2355 66.3946 25.5327C66.5541 25.8281 66.6333 26.1907 66.6333 26.6205C66.6333 27.0453 66.5558 27.4062 66.4002 27.7034C66.2447 28.0005 66.0328 28.2271 65.765 28.3833C65.4972 28.5394 65.1936 28.6175 64.8546 28.6175C64.6073 28.6175 64.4022 28.5806 64.2393 28.5067C64.0764 28.4328 63.9447 28.3438 63.8456 28.2398C63.7482 28.134 63.6724 28.0341 63.6183 27.9401H63.5761V30H62.5586ZM63.5562 26.6155C63.5562 26.8657 63.5955 27.0847 63.6741 27.2727C63.755 27.4608 63.8701 27.6077 64.0199 27.7134C64.1715 27.8175 64.3555 27.8696 64.5709 27.8696C64.7953 27.8696 64.9839 27.8158 65.1355 27.7084C65.2876 27.5993 65.4015 27.4507 65.4784 27.2627C65.5571 27.073 65.5964 26.8573 65.5964 26.6155C65.5964 26.3754 65.5582 26.1622 65.4813 25.9759C65.4044 25.7895 65.2904 25.6435 65.1383 25.5377C64.9868 25.4319 64.7976 25.379 64.5709 25.379C64.3532 25.379 64.1686 25.4302 64.0171 25.5327C63.8656 25.6351 63.7499 25.7786 63.6713 25.9633C63.5944 26.1479 63.5562 26.3654 63.5562 26.6155Z" fill="#CCCCCC"/>
<path d="M72.9329 28.625C72.5113 28.625 72.1462 28.5419 71.8368 28.3757C71.5274 28.2095 71.2876 27.977 71.1172 27.6782C70.9486 27.3794 70.8643 27.0302 70.8643 26.6306C70.8643 26.231 70.9486 25.881 71.1172 25.5805C71.2876 25.28 71.5274 25.0466 71.8368 24.8805C72.1462 24.7142 72.5113 24.6311 72.9329 24.6311C73.3545 24.6311 73.7197 24.7142 74.0285 24.8805C74.3379 25.0466 74.5766 25.28 74.7452 25.5805C74.9156 25.881 75.001 26.231 75.001 26.6306C75.001 27.0302 74.9156 27.3794 74.7452 27.6782C74.5766 27.977 74.3379 28.2095 74.0285 28.3757C73.7197 28.5419 73.3545 28.625 72.9329 28.625ZM72.9386 27.8947C73.1671 27.8947 73.358 27.8385 73.5118 27.7261C73.665 27.6119 73.7795 27.4591 73.8547 27.2677C73.9311 27.0763 73.9698 26.8631 73.9698 26.6281C73.9698 26.3914 73.9311 26.1773 73.8547 25.9859C73.7795 25.7929 73.665 25.6393 73.5118 25.5251C73.358 25.411 73.1671 25.3539 72.9386 25.3539C72.7045 25.3539 72.5096 25.411 72.3541 25.5251C72.2003 25.6393 72.0852 25.7929 72.0083 25.9859C71.9331 26.1773 71.896 26.3914 71.896 26.6281C71.896 26.8631 71.9331 27.0763 72.0083 27.2677C72.0852 27.4591 72.2003 27.6119 72.3541 27.7261C72.5096 27.8385 72.7045 27.8947 72.9386 27.8947Z" fill="#CCCCCC"/>
<path d="M78.8423 24.6815V25.3866H76.2905V24.6815H78.8423ZM76.9286 28.5495V24.3163C76.9286 24.0561 76.9884 23.8395 77.1086 23.6666C77.2305 23.4937 77.3935 23.3645 77.5974 23.2789C77.802 23.1932 78.0282 23.1504 78.2777 23.1504C78.4537 23.1504 78.6098 23.163 78.7471 23.1882C78.8839 23.2134 78.9847 23.2361 79.0502 23.2562L78.848 23.9613C78.8047 23.9495 78.7506 23.9378 78.685 23.926C78.6195 23.9126 78.5466 23.9059 78.4657 23.9059C78.2766 23.9059 78.1427 23.947 78.064 24.0293C77.9871 24.1099 77.949 24.2257 77.949 24.3768V28.5495H76.9286Z" fill="#CCCCCC"/>
<path d="M88.1562 25.1323H87.1051C87.0754 24.9778 87.0196 24.841 86.9393 24.7218C86.8589 24.6009 86.7587 24.4985 86.6385 24.4146C86.5188 24.3306 86.3821 24.2677 86.2283 24.2257C86.0767 24.1821 85.9126 24.1602 85.7366 24.1602C85.4238 24.1602 85.1464 24.2307 84.9048 24.3718C84.6632 24.5111 84.4741 24.7159 84.3368 24.9862C84.2 25.2548 84.1317 25.583 84.1317 25.9709C84.1317 26.3654 84.2 26.6978 84.3368 26.9681C84.4758 27.2367 84.6649 27.4398 84.9048 27.5775C85.1464 27.7134 85.4227 27.7814 85.7337 27.7814C85.9064 27.7814 86.067 27.7613 86.2169 27.721C86.369 27.679 86.5046 27.6178 86.6248 27.5371C86.7461 27.4566 86.8487 27.3575 86.9307 27.24C87.015 27.1225 87.0731 26.9882 87.1051 26.8371L88.1562 26.8421C88.1169 27.0873 88.0314 27.3173 87.9004 27.5321C87.7711 27.747 87.6019 27.9367 87.3916 28.1013C87.182 28.2641 86.9364 28.3917 86.6555 28.484C86.3747 28.5747 86.0625 28.62 85.7195 28.62C85.2136 28.62 84.7624 28.5151 84.3653 28.3053C83.9682 28.0954 83.6554 27.7923 83.4264 27.3962C83.1979 26.9999 83.084 26.5249 83.084 25.9709C83.084 25.4151 83.199 24.9401 83.4292 24.5455C83.66 24.1493 83.9739 23.8463 84.371 23.6365C84.7681 23.4266 85.2176 23.3217 85.7195 23.3217C86.0402 23.3217 86.3382 23.3619 86.6134 23.4425C86.8886 23.5231 87.1341 23.6415 87.3495 23.7976C87.5648 23.9521 87.742 24.1418 87.881 24.3667C88.0212 24.59 88.1129 24.8452 88.1562 25.1323Z" fill="#CCCCCC"/>
<path d="M91.7401 28.625C91.3185 28.625 90.9533 28.5419 90.644 28.3757C90.3346 28.2095 90.0947 27.977 89.9244 27.6782C89.7558 27.3794 89.6714 27.0302 89.6714 26.6306C89.6714 26.231 89.7558 25.881 89.9244 25.5805C90.0947 25.28 90.3346 25.0466 90.644 24.8805C90.9533 24.7142 91.3185 24.6311 91.7401 24.6311C92.1617 24.6311 92.5269 24.7142 92.8357 24.8805C93.145 25.0466 93.3837 25.28 93.5524 25.5805C93.7227 25.881 93.8082 26.231 93.8082 26.6306C93.8082 27.0302 93.7227 27.3794 93.5524 27.6782C93.3837 27.977 93.145 28.2095 92.8357 28.3757C92.5269 28.5419 92.1617 28.625 91.7401 28.625ZM91.7458 27.8947C91.9743 27.8947 92.1651 27.8385 92.3189 27.7261C92.4722 27.6119 92.5867 27.4591 92.6619 27.2677C92.7383 27.0763 92.777 26.8631 92.777 26.6281C92.777 26.3914 92.7383 26.1773 92.6619 25.9859C92.5867 25.7929 92.4722 25.6393 92.3189 25.5251C92.1651 25.411 91.9743 25.3539 91.7458 25.3539C91.5116 25.3539 91.3168 25.411 91.1613 25.5251C91.0074 25.6393 90.8924 25.7929 90.8154 25.9859C90.7402 26.1773 90.7032 26.3914 90.7032 26.6281C90.7032 26.8631 90.7402 27.0763 90.8154 27.2677C90.8924 27.4591 91.0074 27.6119 91.1613 27.7261C91.3168 27.8385 91.5116 27.8947 91.7458 27.8947Z" fill="#CCCCCC"/>
<path d="M95.4634 28.5495V24.6815H96.4354V25.3387H96.4861C96.5761 25.1171 96.7248 24.9442 96.9327 24.82C97.1407 24.6941 97.3891 24.6311 97.6779 24.6311C97.9702 24.6311 98.2161 24.6949 98.4171 24.8225C98.6191 24.9485 98.7611 25.1205 98.8441 25.3387H98.8891C98.9841 25.1239 99.1451 24.9526 99.3721 24.825C99.6011 24.6958 99.8711 24.6311 100.184 24.6311C100.582 24.6311 100.905 24.7436 101.157 24.9686C101.408 25.1935 101.533 25.5218 101.533 25.9532V28.5495H100.513V26.0942C100.513 25.8542 100.442 25.6787 100.3 25.5679C100.157 25.4554 99.9831 25.3992 99.7771 25.3992C99.5311 25.3992 99.3391 25.468 99.2011 25.6057C99.0641 25.7417 98.9961 25.9188 98.9961 26.137V28.5495H97.9981V26.0565C97.9981 25.8567 97.9303 25.6972 97.7959 25.578C97.6626 25.4588 97.4882 25.3992 97.2729 25.3992C97.127 25.3992 96.9937 25.4327 96.8741 25.4999C96.7539 25.5654 96.6587 25.6586 96.5875 25.7794C96.5163 25.8986 96.4804 26.038 96.4804 26.1975V28.5495H95.4634Z" fill="#CCCCCC"/>
<path d="M103.357 30V24.6815H104.357V25.3211H104.416C104.468 25.2271 104.542 25.1272 104.638 25.0215C104.734 24.914 104.863 24.8225 105.026 24.747C105.189 24.6698 105.397 24.6311 105.65 24.6311C105.983 24.6311 106.284 24.7075 106.552 24.8603C106.822 25.0114 107.035 25.2355 107.193 25.5327C107.352 25.8281 107.431 26.1907 107.431 26.6205C107.431 27.0453 107.353 27.4062 107.198 27.7034C107.043 28.0005 106.831 28.2271 106.563 28.3833C106.295 28.5394 105.992 28.6175 105.653 28.6175C105.405 28.6175 105.2 28.5806 105.037 28.5067C104.874 28.4328 104.743 28.3438 104.644 28.2398C104.546 28.134 104.471 28.0341 104.416 27.9401H104.374V30H103.357ZM104.354 26.6155C104.354 26.8657 104.394 27.0847 104.472 27.2727C104.553 27.4608 104.668 27.6077 104.818 27.7134C104.97 27.8175 105.153 27.8696 105.368 27.8696C105.594 27.8696 105.782 27.8158 105.934 27.7084C106.085 27.5993 106.2 27.4507 106.277 27.2627C106.355 27.073 106.395 26.8573 106.395 26.6155C106.395 26.3754 106.356 26.1622 106.279 25.9759C106.203 25.7895 106.088 25.6435 105.937 25.5377C105.784 25.4319 105.595 25.379 105.368 25.379C105.151 25.379 104.967 25.4302 104.815 25.5327C104.663 25.6351 104.548 25.7786 104.469 25.9633C104.393 26.1479 104.354 26.3654 104.354 26.6155Z" fill="#CCCCCC"/>
<path d="M110.336 28.6275C110.062 28.6275 109.816 28.5839 109.597 28.4966C109.38 28.4077 109.207 28.2767 109.08 28.1038C108.954 27.9309 108.892 27.7177 108.892 27.4641C108.892 27.2459 108.937 27.0654 109.027 26.9227C109.117 26.78 109.239 26.6659 109.395 26.5802C109.55 26.4946 109.725 26.43 109.92 26.3863C110.117 26.341 110.32 26.3083 110.53 26.2881C110.783 26.2646 110.988 26.2437 111.145 26.2252C111.303 26.205 111.417 26.1748 111.488 26.1345C111.561 26.0926 111.598 26.0279 111.598 25.9406V25.9255C111.598 25.7358 111.535 25.5889 111.41 25.4848C111.284 25.3807 111.103 25.3287 110.867 25.3287C110.618 25.3287 110.42 25.3774 110.274 25.4747C110.13 25.5721 110.033 25.6871 109.982 25.8197L109.032 25.6989C109.107 25.4638 109.231 25.2674 109.403 25.1096C109.575 24.9501 109.786 24.8309 110.035 24.752C110.285 24.6714 110.56 24.6311 110.862 24.6311C111.07 24.6311 111.277 24.653 111.483 24.6966C111.688 24.7402 111.877 24.8125 112.047 24.9132C112.218 25.0122 112.355 25.1474 112.458 25.3186C112.563 25.4898 112.615 25.7039 112.615 25.9607V28.5495H111.637V28.0182H111.604C111.541 28.1256 111.454 28.2263 111.342 28.3203C111.231 28.4127 111.092 28.4874 110.923 28.5445C110.757 28.5999 110.561 28.6275 110.336 28.6275ZM110.6 27.9577C110.804 27.9577 110.981 27.9216 111.131 27.8494C111.281 27.7755 111.396 27.6782 111.477 27.5573C111.56 27.4365 111.601 27.3046 111.601 27.1619V26.7062C111.569 26.7297 111.515 26.7515 111.438 26.7716C111.363 26.7918 111.278 26.8094 111.185 26.8245C111.091 26.8396 110.998 26.853 110.907 26.8648C110.814 26.8766 110.735 26.8866 110.667 26.895C110.516 26.9135 110.38 26.9437 110.26 26.9857C110.14 27.0277 110.046 27.0864 109.976 27.1619C109.907 27.2358 109.872 27.3315 109.872 27.449C109.872 27.6169 109.941 27.7437 110.077 27.8293C110.215 27.9149 110.388 27.9577 110.6 27.9577Z" fill="#CCCCCC"/>
<path d="M115.447 26.2831V28.5495H114.429V24.6815H115.402V25.3387H115.453C115.552 25.1222 115.71 24.9501 115.927 24.8225C116.146 24.6949 116.417 24.6311 116.74 24.6311C117.038 24.6311 117.297 24.6882 117.518 24.8023C117.741 24.9165 117.913 25.0819 118.035 25.2985C118.159 25.515 118.22 25.7778 118.217 26.0867V28.5495H117.2V26.2277C117.2 25.9691 117.125 25.7669 116.975 25.6208C116.827 25.4747 116.622 25.4017 116.36 25.4017C116.182 25.4017 116.024 25.437 115.885 25.5075C115.748 25.5763 115.641 25.6762 115.562 25.8071C115.485 25.9381 115.447 26.0967 115.447 26.2831Z" fill="#CCCCCC"/>
<path d="M120.043 28.5495V24.6815H121.06V28.5495H120.043ZM120.554 24.1325C120.393 24.1325 120.255 24.0847 120.139 23.989C120.022 23.8916 119.964 23.7749 119.964 23.639C119.964 23.5013 120.022 23.3846 120.139 23.2889C120.255 23.1915 120.393 23.1429 120.554 23.1429C120.717 23.1429 120.856 23.1915 120.97 23.2889C121.087 23.3846 121.145 23.5013 121.145 23.639C121.145 23.7749 121.087 23.8916 120.97 23.989C120.856 24.0847 120.717 24.1325 120.554 24.1325Z" fill="#CCCCCC"/>
<path d="M124.809 28.625C124.376 28.625 124.002 28.5445 123.687 28.3833C123.375 28.2205 123.134 27.9905 122.965 27.6933C122.797 27.3945 122.713 27.0427 122.713 26.6382C122.713 26.2403 122.797 25.8911 122.965 25.5906C123.136 25.2884 123.374 25.0534 123.679 24.8855C123.985 24.7159 124.343 24.6311 124.756 24.6311C125.022 24.6311 125.272 24.6698 125.509 24.747C125.746 24.8225 125.957 24.9401 126.138 25.0995C126.322 25.259 126.466 25.4622 126.571 25.7089C126.676 25.9541 126.728 26.2462 126.728 26.5853V26.8648H123.19V26.2503H125.753C125.751 26.0758 125.709 25.9205 125.627 25.7845C125.544 25.6468 125.429 25.5385 125.281 25.4597C125.135 25.3807 124.964 25.3413 124.769 25.3413C124.561 25.3413 124.379 25.3866 124.222 25.4773C124.064 25.5662 123.941 25.6838 123.853 25.8298C123.767 25.9742 123.723 26.1329 123.721 26.3058V26.8421C123.721 27.0671 123.767 27.2602 123.859 27.4213C123.951 27.5808 124.079 27.7034 124.244 27.789C124.409 27.8729 124.602 27.9149 124.823 27.9149C124.971 27.9149 125.105 27.8965 125.224 27.8595C125.345 27.8209 125.448 27.7646 125.537 27.6908C125.625 27.6169 125.691 27.5254 125.736 27.4163L126.686 27.512C126.626 27.737 126.512 27.9334 126.343 28.1013C126.176 28.2675 125.963 28.3967 125.702 28.4891C125.442 28.5797 125.144 28.625 124.809 28.625Z" fill="#CCCCCC"/>
<path d="M131.792 25.7039L130.864 25.7946C130.838 25.7106 130.792 25.6317 130.727 25.5578C130.663 25.484 130.577 25.4244 130.468 25.379C130.359 25.3337 130.227 25.311 130.069 25.311C129.857 25.311 129.68 25.3522 129.535 25.4345C129.393 25.5167 129.322 25.6233 129.324 25.7543C129.322 25.8667 129.369 25.9582 129.462 26.0287C129.558 26.0993 129.715 26.1572 129.934 26.2025L130.67 26.3435C131.079 26.4225 131.383 26.5475 131.581 26.7187C131.781 26.89 131.883 27.1141 131.884 27.3911C131.883 27.6345 131.803 27.8494 131.646 28.0358C131.49 28.2205 131.274 28.3648 130.996 28.4689C130.719 28.573 130.401 28.625 130.041 28.625C129.513 28.625 129.087 28.526 128.765 28.3279C128.443 28.1281 128.251 27.8503 128.189 27.4943L129.181 27.4087C129.226 27.5833 129.321 27.7151 129.468 27.8041C129.614 27.8931 129.804 27.9375 130.038 27.9375C130.28 27.9375 130.474 27.8931 130.62 27.8041C130.768 27.7151 130.842 27.6051 130.842 27.4742C130.842 27.3634 130.794 27.2719 130.698 27.1997C130.605 27.1275 130.459 27.0721 130.26 27.0335L129.524 26.895C129.11 26.8178 128.803 26.6877 128.605 26.5047C128.406 26.32 128.308 26.0867 128.31 25.8046C128.308 25.5662 128.38 25.3597 128.527 25.1851C128.674 25.0089 128.879 24.8729 129.142 24.7772C129.406 24.6798 129.71 24.6311 130.055 24.6311C130.561 24.6311 130.959 24.7277 131.249 24.9207C131.541 25.1138 131.723 25.3749 131.792 25.7039Z" fill="#CCCCCC"/>
</g>
</g>
<defs>
<clipPath id="clip0_5_913">
<rect width="143" height="32" fill="white"/>
</clipPath>
</defs>
</svg>