<svg xmlns="http://www.w3.org/2000/svg" width="175" height="169" viewBox="0 0 175 169" fill="none">
<path d="M14.98 54.853H132.043V127.854H14.98V54.853Z" fill="#ECEFF8"/>
<path d="M6.60156 52.9968L16.6888 56.6285L12.7416 47.3475M139.911 52.9968L129.824 56.6285L133.771 47.3475" stroke="#ECEFF8" stroke-width="1.197"/>
<path d="M47.0305 135.415C40.0268 137.028 35.5712 135.241 32.7844 132.858C29.6753 130.2 27.5917 125.869 27.4266 121.09C27.2665 116.457 28.9225 111.992 32.566 108.713C36.1832 105.458 43.1374 102.17 55.6926 102.8M27.3977 116.993L2.49686 112.827M28.8126 128.414L5.10203 136.649" stroke="#6161FF" stroke-width="1.197"/>
<path d="M23.5102 125.199C24.2987 125.099 24.8047 123.969 24.6406 122.674C24.4764 121.379 23.7042 120.411 22.9158 120.511C22.1273 120.611 21.6213 121.741 21.7854 123.036C21.9496 124.331 22.7218 125.299 23.5102 125.199Z" stroke="#6161FF" stroke-width="1.197"/>
<path d="M52.9402 161.071C38.3198 164.438 25.1992 161.012 15.6753 152.868C6.47355 145.001 1.5119 133.492 1.11478 121.999C0.712614 110.36 4.97747 98.1206 14.9554 89.1417C24.9597 80.1391 39.3275 75.6169 57.0126 76.5042M124.393 151.021C139.391 150.615 151.233 144.009 158.412 133.738C165.347 123.814 167.265 111.43 164.768 100.204C162.239 88.8358 155.042 78.0566 143.132 71.8661C131.19 65.6592 116.147 64.8836 99.2492 70.1764" stroke="#6161FF" stroke-width="1.197"/>
<path d="M123.682 124.703C130.866 124.508 134.732 121.662 136.832 118.656C139.175 115.303 140.107 110.588 139.069 105.921C138.062 101.396 135.339 97.4881 130.99 95.2276C126.673 92.9834 119.116 91.5438 107.12 95.3014M138.07 101.947L161.131 91.6713M139.562 113.358L164.58 115.385" stroke="#6161FF" stroke-width="1.197"/>
<path d="M143.893 108.919C143.104 109.02 142.331 108.052 142.165 106.758C142 105.463 142.504 104.332 143.293 104.231C144.081 104.13 144.854 105.098 145.02 106.392C145.186 107.687 144.681 108.818 143.893 108.919Z" stroke="#6161FF" stroke-width="1.197"/>
<path d="M86.9372 81.8881L71.462 83.4811C69.1606 83.718 67.487 85.7756 67.7239 88.077L71.2775 122.6C71.5144 124.901 73.572 126.575 75.8734 126.338L91.3486 124.745C93.65 124.508 95.3236 122.45 95.0867 120.149L91.5331 85.6262C91.2962 83.3248 89.2386 81.6513 86.9372 81.8881Z" stroke="#6161FF" stroke-width="1.197"/>
<path d="M69.9004 111.921L94.4336 108.929" stroke="#6161FF" stroke-width="1.197"/>
<path d="M130.661 109.27L34.2348 119.196C31.6049 119.467 29.6925 121.818 29.9632 124.448L34.0127 163.789C34.2834 166.419 36.6348 168.331 39.2647 168.061L135.691 158.135C138.321 157.864 140.234 155.513 139.963 152.883L135.913 113.542C135.643 110.912 133.291 109 130.661 109.27Z" fill="#CBDDFF"/>
<path d="M51.3516 132.557L93.0171 128.266M101.351 127.408L118.017 125.692M118.998 135.216L90.4274 138.158M84.4746 138.77L52.3326 142.08M69.9795 149.888L53.3133 151.604M85.4561 148.294L74.7421 149.398M119.978 144.739L90.2165 147.804" stroke="#6161FF" stroke-width="1.197"/>
<path d="M82.3581 58.6749L66.8828 60.2678C64.2529 60.5385 62.3404 62.8899 62.6112 65.5198L66.1647 100.042C66.4354 102.672 68.7868 104.585 71.4167 104.314L86.8919 102.721C89.5218 102.45 91.4343 100.099 91.1636 97.4692L87.6101 62.9466C87.3394 60.3167 84.988 58.4042 82.3581 58.6749Z" fill="#6161FF"/>
<path d="M111.15 76.1789L44.9487 83.4139C42.3205 83.7012 40.4228 86.0645 40.7101 88.6927L40.97 91.0715C41.2573 93.6996 43.6206 95.5973 46.2488 95.3101L112.451 88.075C115.079 87.7878 116.976 85.4244 116.689 82.7963L116.429 80.4175C116.142 77.7893 113.779 75.8916 111.15 76.1789Z" fill="#6161FF"/>
<path d="M103.962 60.2857L50.3918 65.7998C47.7619 66.0706 45.8495 68.422 46.1202 71.0518L49.6737 105.574C49.9444 108.204 52.2958 110.117 54.9257 109.846L108.496 104.332C111.126 104.061 113.038 101.71 112.767 99.0799L109.214 64.5573C108.943 61.9275 106.592 60.015 103.962 60.2857Z" fill="#CBDDFF"/>
<path d="M71.6818 55.0117C74.0813 53.9017 75.1266 51.0567 74.0167 48.6572C72.9067 46.2577 70.0617 45.2124 67.6622 46.3223C65.2627 47.4323 64.2174 50.2773 65.3273 52.6768C66.4373 55.0763 69.2823 56.1216 71.6818 55.0117Z" fill="#6161FF"/>
<path d="M69.1689 49.5815L74.6959 61.5293" stroke="#6161FF" stroke-width="1.197"/>
<path d="M95.6318 2.19556H109.993L95.6318 16.5564H109.993M113.583 21.3438H125.55L113.583 33.3111H125.55M99.2217 38.0979H107.599L99.2217 46.4751H107.599" stroke="#181B34" stroke-width="1.197" stroke-linejoin="round"/>
<path d="M100.418 1H114.779L100.418 15.3609H114.779M118.369 20.1482H130.337L118.369 32.1156H130.337M104.008 36.9023H112.385L104.008 45.2795H112.385" stroke="white" stroke-width="1.197" stroke-linejoin="round"/>
<path d="M90.9584 90.8004C84.8345 95.5493 76.5155 95.5138 70.499 91.2627M97.1522 78.2674C95.0335 80.7891 91.2717 81.1158 88.75 78.9971M70.5448 81.115C68.4261 83.6367 64.6643 83.9634 62.1426 81.8447" stroke="#181B34" stroke-width="1.197"/>
</svg>