<svg xmlns="http://www.w3.org/2000/svg" width="600" height="435" viewBox="0 0 600 435" fill="none">
<path d="M301.53 434.15C409.778 434.15 497.53 418.704 497.53 399.65C497.53 380.597 409.778 365.15 301.53 365.15C193.282 365.15 105.53 380.597 105.53 399.65C105.53 418.704 193.282 434.15 301.53 434.15Z" fill="url(#paint0_linear_1337_1214)"/>
<path d="M301.53 434.15C409.778 434.15 497.53 418.704 497.53 399.65C497.53 380.597 409.778 365.15 301.53 365.15C193.282 365.15 105.53 380.597 105.53 399.65C105.53 418.704 193.282 434.15 301.53 434.15Z" fill="#0F1048"/>
<mask id="mask0_1337_1214" style="mask-type:alpha" maskUnits="userSpaceOnUse" x="104" y="364" width="395" height="70">
<path d="M301.074 433.589C409.915 433.589 498.148 418.058 498.148 398.9C498.148 379.742 409.915 364.211 301.074 364.211C192.233 364.211 104 379.742 104 398.9C104 418.058 192.233 433.589 301.074 433.589Z" fill="url(#paint1_linear_1337_1214)"/>
</mask>
<g mask="url(#mask0_1337_1214)">
<path d="M301.074 433.589C409.915 433.589 498.148 418.058 498.148 398.9C498.148 379.742 409.915 364.211 301.074 364.211C192.233 364.211 104 379.742 104 398.9C104 418.058 192.233 433.589 301.074 433.589Z" fill="url(#paint2_linear_1337_1214)"/>
</g>
<mask id="mask1_1337_1214" style="mask-type:alpha" maskUnits="userSpaceOnUse" x="104" y="364" width="395" height="70">
<mask id="mask2_1337_1214" style="mask-type:alpha" maskUnits="userSpaceOnUse" x="104" y="364" width="395" height="70">
<path d="M301.074 433.587C409.915 433.587 498.148 418.056 498.148 398.898C498.148 379.74 409.915 364.209 301.074 364.209C192.233 364.209 104 379.74 104 398.898C104 418.056 192.233 433.587 301.074 433.587Z" fill="url(#paint3_linear_1337_1214)"/>
</mask>
<g mask="url(#mask2_1337_1214)">
<path d="M301.074 433.587C409.915 433.587 498.148 418.056 498.148 398.898C498.148 379.74 409.915 364.209 301.074 364.209C192.233 364.209 104 379.74 104 398.898C104 418.056 192.233 433.587 301.074 433.587Z" fill="url(#paint4_linear_1337_1214)"/>
</g>
</mask>
<g mask="url(#mask1_1337_1214)">
<path d="M297.555 448.667C406.396 448.667 494.629 433.136 494.629 413.978C494.629 394.82 406.396 379.289 297.555 379.289C188.714 379.289 100.48 394.82 100.48 413.978C100.48 433.136 188.714 448.667 297.555 448.667Z" fill="#0F1048"/>
</g>
<mask id="mask3_1337_1214" style="mask-type:alpha" maskUnits="userSpaceOnUse" x="105" y="365" width="393" height="70">
<path d="M301.53 434.15C409.778 434.15 497.53 418.704 497.53 399.65C497.53 380.597 409.778 365.15 301.53 365.15C193.282 365.15 105.53 380.597 105.53 399.65C105.53 418.704 193.282 434.15 301.53 434.15Z" fill="#0F1048"/>
</mask>
<g mask="url(#mask3_1337_1214)">
<path d="M246 441.65C250 433.65 251 433.65 250 429.65C249 425.65 244 418.65 246 412.65C248 406.65 253 403.36 255 398.65C257 393.94 255 383.06 255 383.06L328 380.65L339 384.65C339 384.65 339 399.65 341 405.65C343 411.65 350 419.65 350 426.65C350 430.12 348.28 435.07 346.66 439.79C345.04 444.51 242 449.65 246 441.65Z" fill="#6C6CFF"/>
<mask id="mask4_1337_1214" style="mask-type:alpha" maskUnits="userSpaceOnUse" x="245" y="380" width="105" height="66">
<path d="M246 441.65C250 433.65 251 433.65 250 429.65C249 425.65 244 418.65 246 412.65C248 406.65 253 403.36 255 398.65C257 393.94 255 383.06 255 383.06L328 380.65L339 384.65C339 384.65 339 399.65 341 405.65C343 411.65 350 419.65 350 426.65C350 430.12 348.28 435.07 346.66 439.79C345.04 444.51 242 449.65 246 441.65Z" fill="#6C6CFF"/>
</mask>
<g mask="url(#mask4_1337_1214)">
<path d="M280 396.65C280 396.65 262 409.65 265 419.65C268 429.65 276 436.65 270 443.65" stroke="white" stroke-width="3" stroke-miterlimit="10"/>
<path d="M314 399.65C314 399.65 320 416.65 317 428.65C315.837 432.712 314.252 436.64 312.27 440.37" stroke="white" stroke-width="3" stroke-miterlimit="10"/>
<path d="M347 415.65C347 415.65 314 426.65 244 406.65" stroke="white" stroke-width="3" stroke-miterlimit="10"/>
</g>
</g>
<path d="M188 412.93L196.62 410.88C196.67 410.868 196.717 410.847 196.758 410.817C196.8 410.787 196.835 410.749 196.862 410.705C196.889 410.662 196.907 410.613 196.915 410.563C196.924 410.512 196.922 410.46 196.91 410.41V410.41C196.894 410.339 196.859 410.274 196.807 410.223C196.756 410.171 196.691 410.136 196.62 410.12L188 408.06C187.929 408.044 187.865 408.008 187.814 407.956C187.762 407.905 187.726 407.841 187.71 407.77L185.65 399.15C185.638 399.1 185.617 399.053 185.587 399.012C185.557 398.97 185.519 398.935 185.475 398.908C185.431 398.881 185.383 398.863 185.332 398.855C185.281 398.846 185.23 398.848 185.18 398.86C185.109 398.876 185.044 398.911 184.992 398.963C184.941 399.014 184.905 399.079 184.89 399.15L182.83 407.77C182.81 407.839 182.773 407.902 182.723 407.953C182.672 408.004 182.609 408.041 182.54 408.06L173.92 410.12C173.87 410.132 173.823 410.153 173.781 410.183C173.739 410.213 173.704 410.251 173.677 410.295C173.65 410.339 173.632 410.387 173.624 410.438C173.616 410.489 173.618 410.54 173.63 410.59V410.59C173.645 410.661 173.681 410.726 173.732 410.778C173.784 410.829 173.849 410.865 173.92 410.88L182.54 412.93C182.609 412.95 182.672 412.987 182.723 413.037C182.773 413.088 182.81 413.151 182.83 413.22L184.89 421.85C184.902 421.9 184.923 421.947 184.953 421.989C184.983 422.031 185.021 422.066 185.065 422.093C185.108 422.12 185.157 422.138 185.207 422.146C185.258 422.154 185.31 422.152 185.36 422.14V422.14C185.432 422.127 185.498 422.092 185.55 422.041C185.602 421.989 185.637 421.922 185.65 421.85L187.71 413.22C187.726 413.15 187.762 413.085 187.814 413.034C187.865 412.983 187.929 412.947 188 412.93V412.93Z" fill="white"/>
<path d="M220 400.691L225.23 399.441C225.261 399.432 225.289 399.417 225.313 399.396C225.337 399.376 225.358 399.352 225.373 399.324C225.387 399.296 225.397 399.265 225.4 399.234C225.403 399.203 225.4 399.171 225.39 399.141V399.141C225.381 399.102 225.361 399.067 225.332 399.039C225.304 399.01 225.269 398.99 225.23 398.981L220 397.731C219.959 397.72 219.922 397.698 219.892 397.668C219.863 397.639 219.841 397.601 219.83 397.561L218.58 392.331C218.571 392.3 218.556 392.272 218.536 392.248C218.516 392.223 218.491 392.203 218.463 392.188C218.436 392.174 218.405 392.164 218.374 392.161C218.342 392.158 218.31 392.161 218.28 392.171V392.171C218.242 392.18 218.206 392.2 218.178 392.229C218.15 392.257 218.13 392.292 218.12 392.331L216.87 397.561C216.859 397.601 216.838 397.639 216.808 397.668C216.778 397.698 216.741 397.72 216.7 397.731L211.51 399.001C211.449 399.001 211.391 399.025 211.348 399.068C211.305 399.111 211.28 399.17 211.28 399.231C211.28 399.292 211.305 399.35 211.348 399.393C211.391 399.436 211.449 399.461 211.51 399.461L216.74 400.711C216.781 400.722 216.818 400.743 216.848 400.773C216.878 400.803 216.899 400.84 216.91 400.881L218.16 406.111C218.16 406.172 218.185 406.23 218.228 406.273C218.271 406.316 218.329 406.341 218.39 406.341C218.451 406.341 218.51 406.316 218.553 406.273C218.596 406.23 218.62 406.172 218.62 406.111L219.87 400.881C219.876 400.841 219.891 400.803 219.913 400.771C219.936 400.738 219.965 400.71 220 400.691V400.691Z" fill="white"/>
<path d="M390.75 413.471L399.81 411.301C399.915 411.273 400.004 411.204 400.058 411.111C400.113 411.017 400.128 410.905 400.1 410.801C400.081 410.732 400.044 410.669 399.993 410.618C399.942 410.567 399.879 410.53 399.81 410.511L390.75 408.341C390.676 408.324 390.607 408.288 390.553 408.235C390.498 408.182 390.459 408.115 390.44 408.041L388.28 399.041C388.26 398.95 388.209 398.869 388.136 398.811C388.064 398.752 387.973 398.721 387.88 398.721C387.787 398.721 387.697 398.752 387.624 398.811C387.551 398.869 387.501 398.95 387.48 399.041L385.32 408.041C385.305 408.114 385.268 408.182 385.215 408.235C385.161 408.288 385.094 408.325 385.02 408.341L376.02 410.551C375.916 410.579 375.826 410.647 375.772 410.741C375.718 410.835 375.703 410.946 375.73 411.051C375.75 411.12 375.787 411.183 375.837 411.234C375.888 411.284 375.951 411.321 376.02 411.341L385.09 413.511C385.164 413.526 385.231 413.563 385.285 413.616C385.338 413.67 385.375 413.737 385.39 413.811L387.55 422.871C387.571 422.962 387.621 423.043 387.694 423.101C387.767 423.159 387.857 423.191 387.95 423.191C388.043 423.191 388.134 423.159 388.206 423.101C388.279 423.043 388.33 422.962 388.35 422.871L390.51 413.811C390.516 413.738 390.542 413.668 390.584 413.608C390.626 413.548 390.684 413.501 390.75 413.471V413.471Z" fill="white"/>
<path d="M260.53 343.651C260.53 343.651 255.53 332.001 259.02 329.071C262.51 326.141 268.28 319.791 290.91 319.971C313.54 320.151 330.91 322.891 334.73 324.521C338.55 326.151 347.53 329.151 340.53 337.651C333.53 346.151 296.53 347.151 295.53 347.151C294.53 347.151 260.53 343.651 260.53 343.651Z" fill="#0F1048"/>
<path d="M300.53 343.65C324.002 343.65 343.03 338.278 343.03 331.65C343.03 325.023 324.002 319.65 300.53 319.65C277.058 319.65 258.03 325.023 258.03 331.65C258.03 338.278 277.058 343.65 300.53 343.65Z" stroke="#6C6CFF" stroke-width="3" stroke-miterlimit="10"/>
<path opacity="0.7" d="M261.53 390.15C269.215 396.004 278.09 400.1 287.53 402.15C302.53 405.15 341.53 406.15 341.53 406.15L338.53 385.15L293.53 389.15L261.53 390.15Z" fill="#0F1048"/>
<path d="M287.46 177.47C287.46 177.47 301.31 200.66 308.04 204.41C314.77 208.16 323.61 190 323.61 190C323.61 190 308.61 163.46 306.4 161.76" fill="url(#paint5_linear_1337_1214)"/>
<path d="M309.64 158.909C309.64 158.909 313.28 183.709 321.96 191.509C321.96 191.509 334.6 192.239 345.03 180.589C345.03 180.589 333.73 150.739 331.63 145.889C331.63 145.889 303.94 140.999 309.64 158.909Z" fill="url(#paint6_linear_1337_1214)"/>
<path d="M333.62 365.84C333.44 351.84 333.32 337.01 333.39 325.84C333.51 308.21 337.39 290.97 344.32 276.84C355 255.2 254.11 267.46 258.53 285.17C262.53 301.17 269.97 303.24 270.63 314.46C271 320.56 270.18 343.97 269.26 366.23C268.3 389.3 333.91 388.91 333.62 365.84Z" fill="#FDBC9D"/>
<path d="M344.32 278.92C344.32 278.92 359.85 245.28 364.78 230.49C369.71 215.7 373.65 203.87 370.69 196.97C367.73 190.07 354.58 179.64 338.48 178.97C322.38 178.3 278 195.97 273.08 198.97C268.16 201.97 270.08 218.69 272.08 219.68C272.08 219.68 259.08 240.33 258.27 269.96C257.51 296.18 260.51 297.18 282.92 305.02C304.35 312.49 331.75 304.67 344.32 278.92Z" fill="url(#paint7_linear_1337_1214)"/>
<path d="M341 158.001C341 158.001 339.73 182.321 344.09 192.301C344.09 192.301 351.59 210.931 371.49 200.131C371.49 200.131 366.25 159.131 365.49 156.131" fill="url(#paint8_linear_1337_1214)"/>
<path d="M283.43 171.511C286.14 174.911 293.08 194.771 293.08 194.771C289.58 203.511 276.85 203.871 274.08 202.931C271.31 201.991 267.8 186.001 267.8 186.001C261.23 184.131 259.53 171.141 259.53 171.141C259.53 171.141 273.53 159.151 283.43 171.511Z" fill="url(#paint9_linear_1337_1214)"/>
<path d="M254 387.65C254 387.65 266 397.65 297 397.65C328 397.65 343 386.94 343 386.94L344.5 331.15C344.5 331.15 335.68 343.06 309.84 343.35C284 343.64 262 344.81 257 332.23L254 387.65Z" fill="#6C6CFF"/>
<path d="M258 331.65C258 338.27 277 343.65 300.5 343.65C324 343.65 343 338.27 343 331.65" stroke="#6C6CFF" stroke-width="3" stroke-miterlimit="10"/>
<path d="M302.53 434C410.778 434 498.53 418.554 498.53 399.5C498.53 380.446 410.778 365 302.53 365C194.282 365 106.53 380.446 106.53 399.5C106.53 418.554 194.282 434 302.53 434Z" fill="url(#paint10_linear_1337_1214)"/>
<path d="M176.84 326.98H119.74V336.35H176.84V326.98Z" fill="#E5F4FF"/>
<path d="M125.138 336.12C132.676 334.613 137.567 327.281 136.06 319.742C134.554 312.203 127.221 307.313 119.682 308.819C112.144 310.326 107.253 317.658 108.76 325.197C110.266 332.736 117.599 337.626 125.138 336.12Z" fill="url(#paint11_linear_1337_1214)"/>
<path d="M152.59 336.35C166.861 336.35 178.43 324.781 178.43 310.51C178.43 296.239 166.861 284.67 152.59 284.67C138.319 284.67 126.75 296.239 126.75 310.51C126.75 324.781 138.319 336.35 152.59 336.35Z" fill="url(#paint12_linear_1337_1214)"/>
<path d="M180.06 336.35C189.708 336.35 197.53 328.529 197.53 318.88C197.53 309.232 189.708 301.41 180.06 301.41C170.411 301.41 162.59 309.232 162.59 318.88C162.59 328.529 170.411 336.35 180.06 336.35Z" fill="url(#paint13_linear_1337_1214)"/>
<path d="M193.54 114.74H38.71V140.14H193.54V114.74Z" fill="#E5F4FF"/>
<path d="M37.75 140.141C58.5987 140.141 75.5 123.239 75.5 102.391C75.5 81.5419 58.5987 64.6406 37.75 64.6406C16.9013 64.6406 0 81.5419 0 102.391C0 123.239 16.9013 140.141 37.75 140.141Z" fill="url(#paint14_linear_1337_1214)"/>
<path d="M119.46 140.14C158.158 140.14 189.53 108.769 189.53 70.07C189.53 31.3714 158.158 0 119.46 0C80.7611 0 49.3896 31.3714 49.3896 70.07C49.3896 108.769 80.7611 140.14 119.46 140.14Z" fill="url(#paint15_linear_1337_1214)"/>
<path d="M193.95 140.141C220.118 140.141 241.33 118.928 241.33 92.7609C241.33 66.5936 220.118 45.3809 193.95 45.3809C167.783 45.3809 146.57 66.5936 146.57 92.7609C146.57 118.928 167.783 140.141 193.95 140.141Z" fill="url(#paint16_linear_1337_1214)"/>
<path opacity="0.5" d="M355.53 213.149C355.53 213.149 346.53 208.149 327.53 211.149C308.53 214.149 296.43 221.209 285.53 220.679L274.53 220.149C274.53 220.149 286.53 219.149 289.53 219.149C292.53 219.149 303.85 215.039 306.53 214.149C309.53 213.149 347.53 204.149 355.53 213.149Z" fill="#D86964"/>
<path d="M380.42 184.779C381.232 187.148 381.071 189.742 379.973 191.992C378.874 194.242 376.927 195.963 374.56 196.779V196.779L274.59 230.999C273.419 231.405 272.179 231.575 270.942 231.501C269.704 231.427 268.494 231.109 267.379 230.567C266.265 230.025 265.268 229.268 264.446 228.34C263.624 227.412 262.994 226.331 262.59 225.159V225.159C262.185 223.988 262.014 222.748 262.088 221.511C262.162 220.274 262.48 219.063 263.022 217.949C263.565 216.834 264.321 215.837 265.249 215.016C266.177 214.194 267.258 213.563 268.43 213.159V213.159L368.43 178.899C369.603 178.498 370.844 178.331 372.082 178.409C373.32 178.488 374.53 178.809 375.643 179.355C376.757 179.901 377.752 180.661 378.571 181.592C379.391 182.523 380.019 183.606 380.42 184.779V184.779Z" fill="url(#paint17_linear_1337_1214)"/>
<path d="M388.95 191.28C394.163 191.28 398.39 187.054 398.39 181.84C398.39 176.627 394.163 172.4 388.95 172.4C383.736 172.4 379.51 176.627 379.51 181.84C379.51 187.054 383.736 191.28 388.95 191.28Z" fill="url(#paint18_linear_1337_1214)"/>
<path d="M443.01 210.86C468.697 210.86 489.52 190.037 489.52 164.35C489.52 138.663 468.697 117.84 443.01 117.84C417.323 117.84 396.5 138.663 396.5 164.35C396.5 190.037 417.323 210.86 443.01 210.86Z" stroke="url(#paint19_linear_1337_1214)" stroke-width="6.77" stroke-miterlimit="10"/>
<path d="M376.41 182.78C377.223 185.149 377.062 187.743 375.963 189.993C374.864 192.242 372.918 193.964 370.55 194.78L270.58 229C268.213 229.816 265.619 229.657 263.369 228.56C261.118 227.463 259.396 225.517 258.58 223.15V223.15C257.768 220.782 257.929 218.188 259.028 215.938C260.126 213.688 262.073 211.966 264.44 211.15V211.15L364.44 176.89C366.809 176.086 369.4 176.254 371.644 177.359C373.888 178.463 375.603 180.413 376.41 182.78V182.78Z" fill="#6C6CFF"/>
<path d="M384.95 189.28C390.163 189.28 394.39 185.054 394.39 179.84C394.39 174.627 390.163 170.4 384.95 170.4C379.736 170.4 375.51 174.627 375.51 179.84C375.51 185.054 379.736 189.28 384.95 189.28Z" fill="#FFCC00"/>
<path d="M439.01 208.86C464.697 208.86 485.52 188.037 485.52 162.35C485.52 136.663 464.697 115.84 439.01 115.84C413.323 115.84 392.5 136.663 392.5 162.35C392.5 188.037 413.323 208.86 439.01 208.86Z" stroke="#6C6CFF" stroke-width="6.77" stroke-miterlimit="10"/>
<path d="M283.53 170.151C283.53 170.151 274.03 161.621 261.53 169.151C249.03 176.681 259.26 206.271 259.26 206.271C259.26 206.271 262.41 216.831 269.03 215.191C275.65 213.551 277.64 204.631 275.51 199.111C273.38 193.591 275.51 187.921 272.11 181.991C272.11 182.001 288.63 176.331 283.53 170.151Z" fill="url(#paint20_linear_1337_1214)"/>
<path d="M304.37 162.38C304.37 162.38 301.69 149.62 285.22 154.81C268.75 160 276.54 196.29 276.54 196.29C276.54 196.29 277.24 209.29 285.3 209.29C293.36 209.29 298.14 199.54 297.23 192.6C296.32 185.66 299.78 177.16 297.48 169.38C297.48 169.35 308.51 170.92 304.37 162.38Z" fill="url(#paint21_linear_1337_1214)"/>
<path d="M365.83 160C365.83 160 367.71 147.09 350.46 146.29C333.21 145.49 328.04 182.29 328.04 182.29C328.04 182.29 324.21 194.76 331.8 197.49C339.39 200.22 347.21 192.75 348.75 185.92C350.29 179.09 356.45 172.3 356.97 164.21C357 164.2 366.79 169.47 365.83 160Z" fill="url(#paint22_linear_1337_1214)"/>
<path d="M335 153.91C335 153.91 333.58 138.41 315.71 143.2C293.53 149.2 297.71 189.06 297.71 189.06C297.71 189.06 296.64 202.99 305.21 204.06C313.78 205.13 320.21 195.49 320.21 187.99C320.21 180.49 328.07 168.94 326.71 160.36C326.71 160.36 338.21 163.56 335 153.91Z" fill="url(#paint23_linear_1337_1214)"/>
<path opacity="0.2" d="M300.43 200.511C301.993 199.661 303.722 199.162 305.497 199.048C307.272 198.934 309.051 199.208 310.71 199.851C310.71 199.851 311.99 186.091 304.71 186.851C297.43 187.611 300.43 200.511 300.43 200.511Z" fill="white"/>
<path d="M318.53 223.15C327.919 223.15 335.53 211.062 335.53 196.15C335.53 181.239 327.919 169.15 318.53 169.15C309.141 169.15 301.53 181.239 301.53 196.15C301.53 211.062 309.141 223.15 318.53 223.15Z" fill="url(#paint24_radial_1337_1214)"/>
<path d="M338.099 186.854C341.357 172.303 336.571 158.844 327.409 156.792C318.247 154.741 308.179 164.874 304.921 179.426C301.663 193.977 306.449 207.436 315.611 209.488C324.773 211.539 334.841 201.406 338.099 186.854Z" fill="url(#paint25_radial_1337_1214)"/>
<path d="M289.84 247.261C292.12 240.101 299.7 228.521 305.62 223.591C311.54 218.661 313.51 215.711 313.51 215.711C313.51 215.711 309.56 193.031 311.51 180.211C313.46 167.391 322.36 156.551 331.23 156.551C340.1 156.551 340.11 159.551 340.11 162.461C340.11 165.371 338.11 179.221 338.11 184.151C338.11 189.081 335.11 216.381 340.11 223.931C345.11 231.481 347.01 253.171 338.11 270.931C329.21 288.691 317.4 292.621 303.6 290.651C289.8 288.681 282.94 269.001 289.84 247.261Z" fill="#FDBC9D"/>
<path opacity="0.3" d="M330.53 177.15C328.53 177.15 325.53 175.15 325.53 170.15V164.68C325.53 164.68 332.53 163.15 334.53 163.15H338.68C338.68 163.15 338.53 177.15 330.53 177.15Z" fill="white"/>
<path d="M563.49 274.359H464.05V290.679H563.49V274.359Z" fill="#E5F4FF"/>
<path d="M468.78 290.68C482.173 290.68 493.03 279.823 493.03 266.43C493.03 253.037 482.173 242.18 468.78 242.18C455.387 242.18 444.53 253.037 444.53 266.43C444.53 279.823 455.387 290.68 468.78 290.68Z" fill="url(#paint26_linear_1337_1214)"/>
<path d="M521.26 290.68C546.118 290.68 566.27 270.528 566.27 245.67C566.27 220.812 546.118 200.66 521.26 200.66C496.402 200.66 476.25 220.812 476.25 245.67C476.25 270.528 496.402 290.68 521.26 290.68Z" fill="url(#paint27_linear_1337_1214)"/>
<path d="M569.1 290.68C585.906 290.68 599.53 277.056 599.53 260.25C599.53 243.444 585.906 229.82 569.1 229.82C552.294 229.82 538.67 243.444 538.67 260.25C538.67 277.056 552.294 290.68 569.1 290.68Z" fill="url(#paint28_linear_1337_1214)"/>
<path opacity="0.3" d="M280.59 207.31C281.985 206.211 283.601 205.428 285.328 205.016C287.054 204.603 288.85 204.57 290.59 204.92C290.59 204.92 289.51 191.15 282.51 193.15C275.51 195.15 280.59 207.31 280.59 207.31Z" fill="white"/>
<path opacity="0.3" d="M262.94 213.409C264.142 212.307 265.57 211.479 267.124 210.984C268.678 210.488 270.321 210.336 271.94 210.539C271.94 210.539 270 197.999 263.75 200.289C257.5 202.579 262.94 213.409 262.94 213.409Z" fill="white"/>
<path d="M448.66 142.279L431.6 183.329" stroke="#E5F4FF" stroke-width="5.78" stroke-miterlimit="10" stroke-linecap="round"/>
<path d="M430.53 150.619L423.73 166.989" stroke="#E5F4FF" stroke-width="5.78" stroke-miterlimit="10" stroke-linecap="round"/>
<path d="M457.09 155.619L447.73 178.149" stroke="#E5F4FF" stroke-width="5.78" stroke-miterlimit="10" stroke-linecap="round"/>
<defs>
<linearGradient id="paint0_linear_1337_1214" x1="105.53" y1="399.65" x2="497.53" y2="399.65" gradientUnits="userSpaceOnUse">
<stop offset="0.31" stop-color="#6C6CFF"/>
<stop offset="0.57" stop-color="#19194F"/>
<stop offset="0.86" stop-color="#6C6CFF"/>
</linearGradient>
<linearGradient id="paint1_linear_1337_1214" x1="104.035" y1="398.9" x2="498.183" y2="398.9" gradientUnits="userSpaceOnUse">
<stop offset="0.3068" stop-color="#6C6CFF"/>
<stop offset="0.5728" stop-color="#19194F"/>
<stop offset="0.8572" stop-color="#6C6CFF"/>
</linearGradient>
<linearGradient id="paint2_linear_1337_1214" x1="104.035" y1="398.9" x2="498.183" y2="398.9" gradientUnits="userSpaceOnUse">
<stop offset="0.3068" stop-color="#6C6CFF"/>
<stop offset="0.5728" stop-color="#19194F"/>
<stop offset="0.8572" stop-color="#6C6CFF"/>
</linearGradient>
<linearGradient id="paint3_linear_1337_1214" x1="104.035" y1="398.898" x2="498.183" y2="398.898" gradientUnits="userSpaceOnUse">
<stop offset="0.3068" stop-color="#6C6CFF"/>
<stop offset="0.5728" stop-color="#19194F"/>
<stop offset="0.8572" stop-color="#6C6CFF"/>
</linearGradient>
<linearGradient id="paint4_linear_1337_1214" x1="104.035" y1="398.898" x2="498.183" y2="398.898" gradientUnits="userSpaceOnUse">
<stop offset="0.3068" stop-color="#6C6CFF"/>
<stop offset="0.5728" stop-color="#19194F"/>
<stop offset="0.8572" stop-color="#6C6CFF"/>
</linearGradient>
<linearGradient id="paint5_linear_1337_1214" x1="291.87" y1="190.796" x2="319.139" y2="180.241" gradientUnits="userSpaceOnUse">
<stop stop-color="#FDBC9D"/>
<stop offset="1" stop-color="#F49A89"/>
</linearGradient>
<linearGradient id="paint6_linear_1337_1214" x1="321.063" y1="161.952" x2="334.925" y2="178.536" gradientUnits="userSpaceOnUse">
<stop stop-color="#FDBC9D"/>
<stop offset="1" stop-color="#F49A89"/>
</linearGradient>
<linearGradient id="paint7_linear_1337_1214" x1="299.63" y1="273.58" x2="321.93" y2="203.64" gradientUnits="userSpaceOnUse">
<stop stop-color="#FDBC9D"/>
<stop offset="1" stop-color="#F49A89"/>
</linearGradient>
<linearGradient id="paint8_linear_1337_1214" x1="355.719" y1="165.971" x2="354.804" y2="194.993" gradientUnits="userSpaceOnUse">
<stop stop-color="#FFA68D"/>
<stop offset="1" stop-color="#F49A89"/>
</linearGradient>
<linearGradient id="paint9_linear_1337_1214" x1="259.53" y1="184.601" x2="293.08" y2="184.601" gradientUnits="userSpaceOnUse">
<stop offset="0.27" stop-color="#F49A89"/>
<stop offset="1" stop-color="#F49A89"/>
</linearGradient>
<linearGradient id="paint10_linear_1337_1214" x1="302.37" y1="391.36" x2="303.53" y2="452.13" gradientUnits="userSpaceOnUse">
<stop stop-color="#6C6CFF" stop-opacity="0"/>
<stop offset="1" stop-color="#6C6CFF"/>
</linearGradient>
<linearGradient id="paint11_linear_1337_1214" x1="124.737" y1="320.946" x2="137.144" y2="299.681" gradientUnits="userSpaceOnUse">
<stop stop-color="#E5F4FF"/>
<stop offset="1" stop-color="white" stop-opacity="0"/>
</linearGradient>
<linearGradient id="paint12_linear_1337_1214" x1="152.88" y1="310.23" x2="181.08" y2="283.05" gradientUnits="userSpaceOnUse">
<stop stop-color="#E5F4FF"/>
<stop offset="1" stop-color="white" stop-opacity="0"/>
</linearGradient>
<linearGradient id="paint13_linear_1337_1214" x1="180.06" y1="318.88" x2="213.08" y2="296.01" gradientUnits="userSpaceOnUse">
<stop stop-color="#E4F3FE"/>
<stop offset="1" stop-color="white" stop-opacity="0"/>
</linearGradient>
<linearGradient id="paint14_linear_1337_1214" x1="41.75" y1="95.5006" x2="74.94" y2="38.3406" gradientUnits="userSpaceOnUse">
<stop stop-color="#E5F4FF"/>
<stop offset="1" stop-color="white" stop-opacity="0"/>
</linearGradient>
<linearGradient id="paint15_linear_1337_1214" x1="120.24" y1="69.31" x2="196.7" y2="-4.4" gradientUnits="userSpaceOnUse">
<stop stop-color="#E5F4FF"/>
<stop offset="1" stop-color="white" stop-opacity="0"/>
</linearGradient>
<linearGradient id="paint16_linear_1337_1214" x1="193.94" y1="92.7609" x2="283.49" y2="30.7609" gradientUnits="userSpaceOnUse">
<stop stop-color="#E4F3FE"/>
<stop offset="1" stop-color="white" stop-opacity="0"/>
</linearGradient>
<linearGradient id="paint17_linear_1337_1214" x1="262.07" y1="204.949" x2="380.94" y2="204.949" gradientUnits="userSpaceOnUse">
<stop stop-color="#0F1048"/>
<stop offset="1" stop-color="#6C6CFF"/>
</linearGradient>
<linearGradient id="paint18_linear_1337_1214" x1="379.51" y1="181.84" x2="398.39" y2="181.84" gradientUnits="userSpaceOnUse">
<stop stop-color="#6C6CFF"/>
<stop offset="1" stop-color="#FFCC00"/>
</linearGradient>
<linearGradient id="paint19_linear_1337_1214" x1="393.12" y1="164.35" x2="492.91" y2="164.35" gradientUnits="userSpaceOnUse">
<stop stop-color="#0F1048"/>
<stop offset="1" stop-color="#8080FF"/>
</linearGradient>
<linearGradient id="paint20_linear_1337_1214" x1="269.97" y1="176.281" x2="269.17" y2="201.131" gradientUnits="userSpaceOnUse">
<stop stop-color="#FDBC9D"/>
<stop offset="1" stop-color="#F49A89"/>
</linearGradient>
<linearGradient id="paint21_linear_1337_1214" x1="289.74" y1="171.17" x2="284.8" y2="200.06" gradientUnits="userSpaceOnUse">
<stop stop-color="#FDBC9D"/>
<stop offset="1" stop-color="#F49A89"/>
</linearGradient>
<linearGradient id="paint22_linear_1337_1214" x1="361.83" y1="140.55" x2="344.03" y2="172.29" gradientUnits="userSpaceOnUse">
<stop stop-color="#FDBC9D"/>
<stop offset="1" stop-color="#F49A89"/>
</linearGradient>
<linearGradient id="paint23_linear_1337_1214" x1="324.05" y1="143.31" x2="306.24" y2="188.74" gradientUnits="userSpaceOnUse">
<stop stop-color="#FDBC9D"/>
<stop offset="1" stop-color="#F49A89"/>
</linearGradient>
<radialGradient id="paint24_radial_1337_1214" cx="0" cy="0" r="1" gradientUnits="userSpaceOnUse" gradientTransform="translate(318.78 196.15) scale(26.901 21.35)">
<stop stop-color="#E18388"/>
<stop offset="0.69" stop-color="#E18388" stop-opacity="0"/>
</radialGradient>
<radialGradient id="paint25_radial_1337_1214" cx="0" cy="0" r="1" gradientUnits="userSpaceOnUse" gradientTransform="translate(321.737 183.191) rotate(12.62) scale(26.9136 21.36)">
<stop stop-color="#E18388"/>
<stop offset="0.69" stop-color="#E18388" stop-opacity="0"/>
</radialGradient>
<linearGradient id="paint26_linear_1337_1214" x1="471.35" y1="262" x2="492.67" y2="225.29" gradientUnits="userSpaceOnUse">
<stop stop-color="#E5F4FF"/>
<stop offset="1" stop-color="white" stop-opacity="0"/>
</linearGradient>
<linearGradient id="paint27_linear_1337_1214" x1="521.76" y1="245.18" x2="570.87" y2="197.84" gradientUnits="userSpaceOnUse">
<stop stop-color="#E5F4FF"/>
<stop offset="1" stop-color="white" stop-opacity="0"/>
</linearGradient>
<linearGradient id="paint28_linear_1337_1214" x1="569.1" y1="260.25" x2="626.61" y2="220.43" gradientUnits="userSpaceOnUse">
<stop stop-color="#E4F3FE"/>
<stop offset="1" stop-color="white" stop-opacity="0"/>
</linearGradient>
</defs>
</svg>