<svg xmlns="http://www.w3.org/2000/svg" width="16" height="16" viewBox="0 0 14 14" aria-hidden="true" class="$w-[1em] $h-[1em] $fill-current $text-sm"><path d="M11.43 1.066H7.684L7.682.684a.683.683 0 1 0-1.367 0l.001.382H2.57c-.829 0-1.504.675-1.504 1.504v8.86c0 .829.675 1.504 1.504 1.504h3.746v.382a.684.684 0 1 0 1.368 0v-.382h3.746c.829 0 1.504-.675 1.504-1.504V2.57c0-.829-.675-1.504-1.504-1.504m-8.86 10.5a.137.137 0 0 1-.136-.136V9.27h2.27V7h-2.27V4.703h2.27v-2.27h1.612V4.73H4.73V7h1.586v2.297H4.73v2.27zm8.996-.136a.137.137 0 0 1-.136.136H7.684V2.434h3.746c.075 0 .136.06.136.136z"></path></svg>